<?xml version="1.0" standalone="no"?>
<!DOCTYPE svg PUBLIC "-//W3C//DTD SVG 1.1//EN" "http://www.w3.org/Graphics/SVG/1.1/DTD/svg11.dtd">
<svg xmlns="http://www.w3.org/2000/svg">
<metadata>Copyright (C) 2022 by original authors @ fontello.com</metadata>
<defs>
<font id="nissanicons" horiz-adv-x="1000" >
<font-face font-family="nissanicons" font-weight="400" font-stretch="normal" units-per-em="1000" ascent="850" descent="-150" />
<missing-glyph horiz-adv-x="1000" />
<glyph glyph-name="uniE800" unicode="&#xe800;" d="M436 314v0 0z m64 536q-104 0-195-39-92-39-159-106t-107-160q-39-90-39-195t39-195q39-92 107-160t159-106q91-39 195-39t195 39q92 39 160 106t106 160q39 91 39 195t-39 195q-39 92-106 160t-160 106q-90 39-195 39z m0-886q-80 0-150 30t-123 83-82 123-31 150 31 150 82 123 123 83 150 30 150-30 123-83 83-123 30-150-30-150-83-123-123-83-150-30z m65 401v235h-129v-286l164-164 92 86z" horiz-adv-x="1000" />

<glyph glyph-name="uniE69B" unicode="&#xe801;" d="M958 322l-50-59q-15 103-64 191t-122 151-165 101q-93 37-195 38h-7v-57h6q93 0 176-32 84-32 150-89t110-135q44-77 59-168l-56 50-37-42 125-112 112 125-42 38v0z" horiz-adv-x="1000" />

<glyph glyph-name="uniE69A" unicode="&#xe802;" d="M369 469q-52 0-96-19-46-20-80-54t-54-79q-20-46-20-98t20-96q20-46 54-80t80-54q44-20 96-20t98 20q45 20 79 54t54 80q19 44 19 96t-19 98q-20 45-54 79t-79 54q-46 19-98 19v0z m37-50q3 5 11 8t24-4q18-6 30-12t22-14q9-7 26-22t23-26q7-12 8-18t-1-9q-7-7-45-19t-45-13q-6-1-16-1t-19 5q-5 4-10 12t-7 24q-1 16-2 50t1 39v0z m32-199q-7-2-14 2t-9 11q-3 7 1 14t11 8q8 2 14-1t9-10q2-8-1-15t-11-9v0z m-42-40q6 4 14 3t12-8q4-6 2-13t-7-12q-7-5-14-4t-12 9q-4 6-3 13t8 12z m-27 123q8 0 13-5t6-12q0-8-6-14t-13-6-13 6-5 14q0 6 5 12t13 5z m-25-147q-4-6-12-7t-14 4q-5 4-6 11t3 14q4 6 12 7t14-3q6-5 7-13t-4-13v0z m-43 65q-7 3-11 10t-1 14q2 6 9 10t15 1q6-2 10-8t1-14q-2-8-9-11t-14-2v0z m-104 129q11 15 21 24t19 17q10 7 30 19t32 13q13 3 19 3t8-5q4-7 5-48t-2-46q-1-7-3-17t-12-16q-4-4-14-6t-25 2-48 12-37 13q-3 5-3 13t10 22v0z m29-274q-6-3-14-1t-19 17-17 28-10 23-9 33-4 34q1 14 4 20t6 7q9 2 47-10t45-15 14-8 12-16q2-6 2-15t-9-23q-7-15-25-44t-23-30v0z m201-66q-18-5-32-6t-26-2-34 3-34 9q-11 6-16 10t-4 9q1 8 26 40t29 37q5 4 13 10t19 5q6 0 15-3t18-15q10-13 31-40t21-33-5-13-21-11v0z m116 80q-9-9-14-12t-9-1q-9 4-32 37t-25 39-6 15 0 20q2 6 8 13t21 13 48 17 37 10q6-1 11-8t4-25q-1-18-4-32t-7-24q-4-12-13-32t-19-30v0z" horiz-adv-x="1000" />

<glyph glyph-name="uniE695" unicode="&#xe803;" d="M272 286l-80 14-42 72q0 4-3 5l-4 1-5-1t-9-5l-43-72-79-14-4-1t-3-6v-8-7l58-57-8-79q0-5 1-6t7-7h7 6l72 35 71-35h1 7v0 0q5 0 9 4t4 9v0 0l-13 79 56 57q6 6 7 7t1 8q-6 5-8 6t-6 1v0z m364 0l107 107 3 4t-3 11q0 5-4 6l-4 1-149 35-71 135q0 6-5 7t-10 1-7-1-8-7l-71-135-149-29q-6 0-8-4t-7-9v-8-7l107-107-14-150q0-6 1-8t6-6h4 3 4 3l143 64 143-64h4 3q5 0 10 4t5 10v0 0l-36 150v0z m364-7q0 5-3 6l-4 1-79 14-43 72q0 4-4 5t-10 1q-5 0-7-1t-7-5l-43-72-78-14q-6 0-7-4l-1-3v-8-7l64-57-6-79q0-5 1-6t5-7h4 4 4 3l71 35 72-35h1 5v0 0q6 0 11 4t4 9v0 0l-15 79 58 57v7 8 0z" horiz-adv-x="1000" />

<glyph glyph-name="uniE694" unicode="&#xe804;" d="M886 721h-793q-37 0-65-27t-28-66v-564q0-37 28-61t65-24h814q37 0 65 24t28 61v564q0 38-39 66t-75 27v0z m-336-543h-350v51h350v-51z m250 151h-600v49h600v-49z m0 142h-600v51h600v-51z" horiz-adv-x="1000" />

<glyph glyph-name="uniE693" unicode="&#xe805;" d="M950 585v-392h-892v392h892v0z m50 51h-1000v-500h1000v500z m-786-150h-28q-5-16-17-26t-33-10v0-29h43v-135h35v200 0z m279 0q-32 0-48-15t-16-43v-7h43q0 17 2 27t19 9q11 0 16-5t6-16q0-17-3-24t-19-19l-14-21q-27-22-39-41t-11-45h121v28h-71q0 6 5 15t16 14l22 22q15 15 22 29t6 34q6 28-9 43t-48 15v0 0z m322 136q-28 0-43-16t-15-42h29q0 17 3 23t19 6q9 0 15-6t5-23q0-11-5-20t-15-8h-15v-29h15q15 0 22-9t6-27q0-11-3-19t-18-9q-17 0-20 10t-2 26h-43q0-27 15-43t43-15q42 0 52 21t11 37q0 16-7 29t-28 14v0q16 5 22 16t6 26q6 32-8 45t-41 13v0 0z m-451 14h-56v-500h56v500z m322 0h-57v-500h57v500z m171-279h-42l-65-121v-36h71v-42h36v42h22v36h-22v121 0z m-79-121l43 71v-71h-43z" horiz-adv-x="1000" />

<glyph glyph-name="uniE692" unicode="&#xe806;" d="M0 850v-1000h1000v1000h-1000z m504-363l-165-372q-10-20-25-32t-43-1q-29 11-28 32t5 30l45 116-110 227q-2 5-4 27t27 32q26 9 42-1t25-27l71-149 70 149q7 16 21 28t46 0q33-11 28-35l-5-24v0z m308-246q-12-12-32-13t-33 12q-5 4-63 53l-59 49v-80q-1-17-12-27t-33-10q-20 0-32 9t-12 28v216q1 20 11 30t33 11 33-11 12-30v-75l109 103q9 8 29 13t37-13q24-23 10-45l-14-21-75-66 84-70q13-13 16-33t-9-30v0z" horiz-adv-x="1000" />

<glyph glyph-name="uniE691" unicode="&#xe807;" d="M290 421h-142q-43 0-76 33t-32 75v142q0 43 32 76t76 32h142q43 0 75-32t33-76v-142q0-43-33-75t-75-33z m0-500h-142q-43 0-76 32t-32 76v142q0 43 32 76t76 32h142q43 0 75-32t33-76v-142q0-43-33-76t-75-32z m250 358h429v-143h-429v143z m0-215h429v-143h-429v143 0z m0 715h429v-143h-429v143z m0-215h429v-143h-429v143z" horiz-adv-x="1000" />

<glyph glyph-name="uniE690" unicode="&#xe808;" d="M614-145q-6 0-11 2t-10 5l-229 152q-8 5-12 13t-4 18v367l-295 332q-7 7-9 19t3 22q5 9 14 16t20 6h841q12 0 21-6t14-17q4-11 2-23t-10-19l-297-331v-518q0-10-5-19t-15-14q-4-2-8-4t-10-1v0z" horiz-adv-x="1000" />

<glyph glyph-name="uniE68F" unicode="&#xe809;" d="M179 850v-1000h642v1000h-642v0z m214-871h-93v93h93v-93z m0 143h-93v92h93v-92z m0 142h-93v93h93v-93z m150-285h-93v93h93v-93z m0 143h-93v92h93v-92z m0 142h-93v93h93v-93z m157-285h-93v93h93v-93z m0 143h-93v92h93v-92z m0 142h-93v93h93v-93z m0 229h-400v236h400v-236z" horiz-adv-x="1000" />

<glyph glyph-name="uniE68E" unicode="&#xe80a;" d="M500 850q-103 0-194-39-92-39-160-107t-107-160q-39-90-39-194t39-194q39-92 107-160t160-107q91-39 194-39t194 39q92 39 160 107t107 160q39 91 39 194t-39 194q-39 92-107 160t-160 107q-90 39-194 39z m0-944q-92 0-173 35-81 34-141 95t-95 141q-35 81-35 173t35 173q34 81 95 142t141 94q81 35 173 35t173-35q81-34 142-94t94-142q35-81 35-173t-35-173q-34-81-94-141t-142-95q-81-35-173-35v0z m283 610l-123 123-160-159-162 159-124-123 163-159-160-160 123-123 160 159 160-159 123 123-160 160z" horiz-adv-x="1000" />

<glyph glyph-name="uniE68C" unicode="&#xe80b;" d="M836 307q-6-48-22-87t-49-77l114-114q48 58 78 128t36 150h-157v0z m-293-285v-172q40 3 78 12 39 8 75 24t67 34q32 20 58 44l-114 115q-37-22-79-37t-85-20v0z m-243 63l-121-121q58-48 128-78t150-36v172q-43 5-84 21t-73 42z m-128 222h-172q3-40 12-78 9-39 24-75t34-67q20-32 44-58l121 121q-26 32-42 73t-21 84v0z m63 243l-114 121q-54-58-85-128t-36-150h172q5 43 21 84t42 73v0z m222 128v172q-80-5-150-36t-128-85l121-122q32 32 73 49t84 22z m400-192l-36 36 143 143q32 32 32 74t-32 68q-31 32-73 32t-70-32l-142-142-43 42q-16 16-36 16t-35-16v0q-17-16-17-36t17-35l35-36-186-185q-11-17-23-41t-12-45v-22l7-64 64-7h22q21 0 48 10t38 26l185 185 43-42q16-17 35-17t36 17v0q16 15 16 35t-16 36v0z m-329-179q-10-11-26-16t-30-5v0l-43 36q0 10 8 27t13 23l186 192 71-71z" horiz-adv-x="1000" />

<glyph glyph-name="uniE68D" unicode="&#xe80c;" d="M750 417l-250 433-500-866h1000z m-594-343l344 596 344-596h-688v0z m299 437h90v-258h-90v258 0z m0-298h90v-90h-90v90 0z" horiz-adv-x="1000" />

<glyph glyph-name="uniE68B" unicode="&#xe80d;" d="M583 655q15 15 23 36t9 45q0 47-33 80t-81 34q-48 0-81-34t-33-80q0-24 8-44t23-35q-68-15-128-51-59-36-102-88t-68-118q-24-67-24-139 0-84 32-157t87-128 128-85q73-32 156-31 84 0 156 32 74 31 128 86t86 129q31 73 31 156 0 72-24 137-24 65-67 117t-100 88q-59 35-126 50v0z m-82 137q23 0 41-16t17-40q0-25-17-41t-41-17-41 17-17 41q0 23 17 40t41 16z m-2-870q-70-1-132 27-62 26-109 72t-72 107q-28 63-28 133t27 132q26 63 72 108t108 74q62 27 132 27t133-26q61-27 108-73t73-108q27-62 27-132t-26-133q-27-61-73-108t-108-72q-62-28-132-28v0z m43 360h1l-39 27t-86 60-87 58q-40 26-44 23-3-4 23-44t58-88 60-85l27-39v1q2-3 4-5t3-5q19-18 44-18t45 18q18 19 18 44t-17 45q-3 2-5 4t-5 4v0z m-43 216q8 0 13 5t5 13v48q0 8-6 13t-12 4q-8 0-13-4t-5-13v-48q0-8 6-13t12-5v0z m0-468q-7 0-12-6t-6-13v-48q0-7 5-12t13-5 13 5 5 12v48q0 8-5 13t-13 6v0z m-254 250h-48q-7 0-12-6t-5-12q0-8 5-13t12-5h48q8 0 13 5t5 13q0 7-5 12t-13 6v0z m559 0h-49q-7 0-12-6t-6-12q0-8 6-13t12-5h48q8 0 13 5t5 13q0 7-5 12t-12 6v0z" horiz-adv-x="1000" />

<glyph glyph-name="uniE68A" unicode="&#xe80e;" d="M993 349q0-59 0-119t0-119q0-10-3-15t-11-11q-59-28-117-57-57-29-115-57t-116-59-116-58q-8-4-15-4t-16 4q-58 29-116 58t-116 59-116 58q-58 28-116 57-8 4-11 9t-3 13v121 121 121 121q0 9 3 13t11 9q58 29 116 57 58 30 116 59t116 58q59 29 116 58 9 4 16 4t16-5q57-28 115-57 57-29 115-58t115-58 116-57q8-4 12-10t4-17q-1-59 0-119t0-120v0z m-55 232q-2 0-3 1t-3 2l-106 53-105 53-106 53q-53 26-106 52-4 2-11 2t-12-4q-61-30-122-60t-122-61q-45-23-90-46t-91-45q3-2 5-4t5-3q52-26 105-52 52-26 104-53t105-52q52-26 104-51 4-3 11-3t12 4l103 50 103 52t103 52q52 25 103 51 4 2 7 4t7 5v0z m-464-668q1 3 1 5t1 3v96 97 95 97q0 9-5 13t-11 8l-98 48t-97 49-97 49-98 48l-7 4t-10 4v-12-9-92-91-92-91q0-11 4-17t13-11q48-24 97-48 48-25 96-48t96-49q49-24 97-48 4-2 8-4t10-4v0z m49-1q4 2 7 3t5 2q50 26 100 50 50 26 99 50t100 50q50 24 100 50 8 4 10 9t1 13v94 93 92 94 7t-1 9q-4-1-7-3t-6-2q-50-25-99-50t-98-49-98-49q-50-24-99-49-9-4-12-10t-2-14q0-47 0-93v-92-93-93-7-12 0z" horiz-adv-x="1000" />

<glyph glyph-name="uniE689" unicode="&#xe80f;" d="M500 850q-103 0-194-39-92-39-160-107t-107-160q-39-90-39-194t39-194q39-92 107-160t160-107q91-39 194-39t194 39q92 39 160 107t107 160q39 91 39 194t-39 194q-39 92-107 160t-160 107q-90 39-194 39z m0-944q-92 0-173 35-81 34-141 95t-95 141q-35 81-35 173t35 173q34 81 95 142t141 94q81 35 173 35t173-35q81-34 142-94t94-142q35-81 35-173t-35-173q-34-81-94-141t-142-95q-81-35-173-35z" horiz-adv-x="1000" />

<glyph glyph-name="uniE688" unicode="&#xe810;" d="M884 720h-74v51q0 27-20 47t-48 19h-3q-27 0-47-19t-20-47v-51h-348v51q0 27-19 47t-48 19h-2q-28 0-48-19t-19-47v-51h-75q-28 0-48-20t-19-47v-722q0-28 19-48t48-19h771q27 0 47 19t20 48v722q0 27-20 47t-47 20v0z m-46-750h-679v546h679v-546z m-587 299h117q5 0 8 3t3 8v117q0 5-3 8t-8 3h-117q-4 0-7-3t-4-8v-117q0-4 4-8t7-3z m189 0h117q5 0 8 3t2 8v117q0 5-2 8t-8 3h-117q-4 0-8-3t-3-8v-117q0-4 3-8t8-3z m188 0h117q5 0 8 3t3 8v117q0 5-3 8t-8 3h-117q-4 0-7-3t-4-8v-117q0-4 4-8t7-3z m-377-188h117q5 0 8 3t3 7v117q0 5-3 8t-8 3h-117q-4 0-7-3t-4-8v-117q0-4 4-7t7-3z m189 0h117q5 0 8 3t2 7v117q0 5-2 8t-8 3h-117q-4 0-8-3t-3-8v-117q0-4 3-7t8-3z m188 0h117q5 0 8 3t3 7v117q0 5-3 8t-8 3h-117q-4 0-7-3t-4-8v-117q0-4 4-7t7-3z" horiz-adv-x="1000" />

<glyph glyph-name="uniE66C" unicode="&#xe811;" d="M999 491l-357-1-1 360h-281l-3-359-357 2v-285l357 1 1-359h285v357l357 1z" horiz-adv-x="1000" />

<glyph glyph-name="uniE66D" unicode="&#xe812;" d="M706 850q-77 0-127-35t-79-74q-28 39-79 74t-127 35q-50 0-94-19-43-18-78-50t-60-75q-27-42-41-90h-1v0q-9-31-15-62t-5-64q0-95 67-200 68-105 152-196t160-156 95-78q6-5 12-8t14-2 14 2 12 8q19 13 95 78t160 156 152 196q67 105 67 200 0 65-21 130-21 64-60 115t-93 83q-53 32-120 32v0z" horiz-adv-x="1000" />

<glyph glyph-name="uniE66E" unicode="&#xe813;" d="M706 850q-77 0-127-35t-79-74q-28 39-79 74t-127 35q-66 0-120-32-55-31-93-83t-59-115q-22-65-22-130 0-95 67-200 68-105 152-196t160-156 95-78q6-5 12-8t14-2 14 2 12 8q19 13 95 78t160 156 152 196q67 105 67 200 0 65-21 130-21 64-60 115t-93 83q-53 32-120 32z m-206-882q-62 52-134 119-71 69-132 140t-100 141q-40 69-40 122 0 40 12 85 13 44 39 81t62 62q38 26 87 26 89 0 125-60t37-63q6-15 18-25t26-10v0 0q15 0 26 10t18 25q1 3 37 63t125 60q49 0 87-26 37-24 63-62t38-81q12-45 12-85 0-53-40-121-40-70-100-142t-132-140q-71-67-134-119v0z" horiz-adv-x="1000" />

<glyph glyph-name="uniE66F" unicode="&#xe814;" d="M977 400l-527-527q-23-23-56-23t-57 23l-314 314q-23 23-23 56t23 56l527 528q14 12 31 18t33 4l-1 1 274-60q9-1 26-11t25-40l56-252q9-23 5-46t-22-41v0z m-132 295q-25 24-59 24t-58-24-25-59 25-59 58-25 59 25 24 59-24 59z" horiz-adv-x="1000" />

<glyph glyph-name="uniE670" unicode="&#xe815;" d="M-1 462q3-78 34-144 32-68 85-116t122-77 147-24q54 2 105 19t92 46l327-316 90 97-322 312q34 49 52 108t17 122q-3 77-35 144t-85 116-121 77q-69 27-148 24-77-3-144-35-67-31-116-84t-76-122q-27-69-24-147v0z m133 5q-2 50 16 94 16 45 48 79t76 55q43 20 92 22 51 2 95-15 45-18 79-50t55-74q20-44 22-94t-15-95q-18-44-50-78t-74-55q-44-20-94-22t-95 15-78 50-55 74q-21 43-22 94v0z" horiz-adv-x="1000" />

<glyph glyph-name="uniE671" unicode="&#xe816;" d="M868 40q27 13 44 39t17 57q0 44-34 75t-74 32l-392-18q14 24 17 49t-19 76l-125 237q-5 18-18 31t-29 18q17 1 29 11t16 26l19 88q6 20-4 38t-31 25l-34 8q-16 0-36-8t-24-30l-20-87q-6-20 5-39t30-23l27-8q-2 0-6 0t-6-1h-9q-27-7-40-31t-9-53l99-338q3-11 9-22t14-21q-8-15-12-26t-4-27q0-24 10-46t28-36q-15-7-27-21t-11-40q0-33 24-70t64-37q22 0 93 1h149 144t77-1q40-1 65 37t25 70q1 12-6 33t-35 32v0z m-564 78q0 29 21 50t50 21 50-21 21-50-21-51-50-21-50 21-21 51v0z m517-214h-464q-23 0-38 24t-15 47 15 29 38 7h464q23 0 38-7t16-29-16-47-38-24z" horiz-adv-x="1000" />

<glyph glyph-name="uniE672" unicode="&#xe817;" d="M210 843q-11-1-12-9t-2-25q1-16-3-29t-17-21q-2-2-5-3t-5-3v0 0q-14-7-27-4t-26 13q-13 9-21 12t-14-5l-7-9-10-13q0-1-1-1h0l-11-14-7-9t-2-16 17-18q10-11 17-23t2-27q-1-3-1-6t-2-6v0-1q-5-14-16-21t-28-10q-14-4-22-7t-7-14l1-11 2-18v0-1l2-17 2-11q1-12 9-13t23-1q16 0 29-4t21-17q1-3 2-5t3-6v0 0q7-14 3-27t-12-28q-8-12-11-21t5-15l8-6 14-12v0 0h0 1q13-11 13-11t8-7 16-2 17 16q11 12 23 18t26 3q3-1 5-2t6-2v0h1q14-4 20-17t10-27q4-16 7-24t14-7l10 1 18 2v0 0 0 0l18 2 10 2q11 1 12 9t2 25q-1 16 3 29t17 21v0q3 2 5 3t5 3v0 0q14 7 27 3t26-12q14-9 21-12t14 5l7 9 11 14v0t1 1v0 0l10 13 7 9t2 16-16 18q-11 11-18 23t-2 28q1 2 2 5t1 5v1 0q5 16 17 22t27 10q15 4 22 7t7 15l-1 10-2 18v0 1 0 0l-2 18-1 10q-2 12-10 13t-24 1q-14 0-28 4t-21 17v0 0q-1 3-2 6t-3 4v1 0q-6 14-3 27t12 28q8 13 11 21t-5 15l-8 7-13 11v0t-1 1v0 0q-14 10-14 10t-8 7-15 2-18-17q-11-10-22-17t-27-3q-3 1-5 2t-6 2v0h-1q-13 5-21 17t-10 28-6 23-13 7q-12-1-12-1t-17-2l-17-2-11-2v0z m156-257q5-43-21-76t-67-38-73 22-37 69q-5 43 21 76t67 38 74-22 36-69z m183-127q-13-4-12-15t6-28q5-18 4-35t-14-30q-2-2-4-4t-5-5h-1v0q-13-12-29-12t-34 5q-17 7-27 9t-15-12l-5-11-9-20v0-1q-8-19-8-19t-5-11q-5-13 2-20t23-15q17-9 27-22t11-30q0-4 0-7t-1-7v0-1q-1-18-12-30t-28-20-24-15-4-19l5-11 7-20 1-1v0q6-20 6-20t5-12 15-12 27 6q18 6 34 5t29-14q2-3 4-5t5-6v0h0q12-13 12-30t-6-35q-6-18-7-28t10-16q12-5 12-5t19-9v0 0 0 0l19-8 12-6q11-5 17 3t16 24q9 16 21 27t30 11h6 6 1 0q18-1 30-13t19-29 14-25 19-3l11 4 20 8v0 0 0h1l18 7 12 5q13 5 12 15t-6 28q-5 19-4 35t14 30v0q2 3 4 5t4 5h1 0q14 12 30 12t34-7q16-5 27-7t15 11l5 12 9 20v0 0 0 0l8 19 5 13q5 12-2 18t-23 16q-17 9-28 22t-10 30v7 6q1 0 1 1v0q1 19 12 31t28 20q16 8 24 14t4 19l-5 12-7 20v0t-1 1v0 0q-6 20-6 20t-5 12-15 12-27-6q-18-6-35-5t-28 14h-1q-2 2-4 5t-4 4l-1 1v0q-11 14-11 31t6 35 7 28-10 16l-12 5-19 8v0h-1v0 0l-18 9-12 6q-12 5-18-3t-15-24-21-28-30-11q-3 1-6 1h-7-1v0q-18 1-29 12t-19 30q-8 16-15 24t-18 4q-12-5-12-5t-20-8q-19-7-19-7t-11-5v0z m254-248q17-46-3-93t-66-65q-45-17-90 3t-63 68q-17 47 3 94t65 65q46 17 91-3t63-69z" horiz-adv-x="1000" />

<glyph glyph-name="uniE673" unicode="&#xe818;" d="M571 850h286v-286h-286v286z m-500-357h286v-286h-286v286 0z m497-357h287v-286h-287v286z" horiz-adv-x="1000" />

<glyph glyph-name="uniE674" unicode="&#xe819;" d="M714 229v-229h-571v572h228v142h-371v-857h857v372h-143z m-257 614v-185h189l-354-355 161-161 347 347v-175h200v529h-543z" horiz-adv-x="1000" />

<glyph glyph-name="uniE675" unicode="&#xe81a;" d="M500 345q75 0 128 53t53 129q0 74-53 127t-128 53-128-53-53-128q0-74 53-128t128-53v0z m0 271q37 0 63-27t26-63q0-36-26-63t-63-26-63 26-26 64q0 36 26 62t63 27v0z m208-292q-7 15-27 23t-49-16q-37-30-85-35l-47-5-47 5t-86 35q-27 23-48 16t-27-23q-14-28 0-44t48-38q28-19 64-27t62-11l-29-29-59-58-48-48q-12-13-12-30t12-29l5-5q13-12 30-12t29 12l106 107q30-31 59-58t48-49q12-12 29-12t30 12l5 5q12 12 12 29t-12 30l-136 135q26 2 61 11t65 27q34 21 48 38t-1 44v0z" horiz-adv-x="1000" />

<glyph glyph-name="uniE676" unicode="&#xe81b;" d="M1000-150h-1000v1000h1000v-1000z m-483 855q-73 0-127-24t-92-60-55-82q-17-45-17-88 0-53 20-96t63-61q6-3 12 0t8 11q1 5 4 16t5 16q2 8 0 12t-7 11q-12 14-19 34t-7 46q0 39 13 74 15 35 41 62t63 44q37 15 84 15 82 0 125-44t44-112q0-88-36-152t-93-65q-32 0-52 23t-13 56q9 38 23 77t14 68q0 24-14 42t-41 18q-33 0-56-29t-23-76q0-28 6-47l7-18-7-29q-7-30-16-69t-18-74q-8-37-11-49-12-50-8-100t6-56q1-4 4-4t6 2q3 4 31 45t43 88q4 14 16 63l12 50q11-21 39-36t61-15q49 0 90 21 40 21 69 58t45 89q15 52 15 111 0 46-18 88-18 42-52 75t-81 51q-48 20-106 20v0z" horiz-adv-x="1000" />

<glyph glyph-name="uniE677" unicode="&#xe81c;" d="M0 850v-1000h1000v1000h-1000z m765-364q1-4 1-9v-9q0-67-26-137t-74-125-123-91q-72-35-167-35-58 0-111 16t-98 45q8-1 16-1t16-1q48 0 92 15t78 44q-45 0-79 27t-49 67q7-1 13-2t14 0q8 0 18 1t17 3q-47 10-78 48t-32 86v2q14-8 30-12t33-4q-28 17-45 47t-17 66q0 19 5 36t14 33q25-31 57-56t67-44 75-30q40-10 83-13-2 7-3 15t-1 16q0 56 40 97t97 40q30 0 56-12t45-31q22 4 44 13t42 20q-7-24-23-43t-37-32q20 2 40 7t38 14q-14-20-31-38t-37-33v0z" horiz-adv-x="1000" />

<glyph glyph-name="uniE678" unicode="&#xe81d;" d="M0 850v-1000h1000v1000h-1000z m825-702l-95-1h-14t-34 15q-27 17-52 51t-44 28q-20-6-22-36l-3-30-1-5t-5-9q-5-5-12-5l-8 1h-43l-57 6t-120 70q-34 35-65 83-30 49-54 92t-38 74l-13 30-2 7t3 10q3 6 12 6l8 1 103 1 5-2t11-5q4-4 7-9l2-4 11-25t27-54q32-56 49-72t28-10q16 9 15 57l0 47-1 19t-10 29q-7 9-16 12t-15 5q-5 0 0 8t16 11q13 7 37 9t51 1q23-1 32-2t18-3q27-7 25-34t-1-86v-41t13-31q6-4 23 7t52 73q17 28 28 56l12 28 2 4t7 8q4 2 9 2h5l107 1h17t21-11q4-12-9-39t-47-71q-54-72-59-86t38-56q43-40 57-60t15-22q17-30-4-37l-22-6v0z" horiz-adv-x="1000" />

<glyph glyph-name="uniE679" unicode="&#xe81e;" d="M780 273q42-40 56-60t15-22q17-30-4-37l-22-6-95-1h-14t-34 15q-27 17-52 51t-44 28q-20-6-22-36l-3-30-1-5t-5-9q-5-5-12-5l-8 1h-43l-57 6t-120 70q-34 35-65 83-30 49-54 92t-38 74l-13 30-2 7t3 10q3 6 12 6l8 1 103 1 5-2t11-5q4-4 7-9l2-4 11-25t27-54q32-56 49-72t28-10q16 9 15 57l0 47-1 19t-10 29q-7 9-16 12t-15 5q-5 0 0 8t16 11q13 7 37 9t51 1q23-1 32-2t18-3q27-7 25-34t-1-86v-41t13-31q6-4 23 7t52 73q17 28 28 56l12 28 2 4t7 8q4 2 9 2h5l107 1h17t21-11q4-12-9-39t-47-71q-54-72-59-86t39-56v0 0z" horiz-adv-x="1000" />

<glyph glyph-name="uniE67A" unicode="&#xe81f;" d="M167 141q45-29 98-45t111-16q95 0 167 35 73 35 123 91t74 125 26 137v9t-1 9q20 14 37 33t31 38q-18-9-38-14t-40-7q21 12 37 32t23 43q-20-12-42-20t-44-13q-19 20-45 31t-56 12q-57 0-97-40t-40-97q0-8 1-16t3-15q-43 3-83 13-39 11-75 30t-67 44-57 56q-9-15-14-33t-5-36q0-35 17-66t45-47q-18 0-33 4t-30 12v-2q0-49 32-86t78-48q-8-2-17-3t-18-1q-7 0-14 0t-13 2q14-41 49-67t79-27q-35-29-78-44t-92-15q-8 0-16 1t-16 1v0z" horiz-adv-x="1000" />

<glyph glyph-name="uniE67B" unicode="&#xe820;" d="M500 850q-103 0-194-39-91-40-159-108t-108-159q-39-90-39-194t39-194q40-91 108-159t159-108q91-39 194-39t194 39q91 40 159 108t108 159q39 91 39 194t-39 194q-40 91-108 159t-159 108q-90 39-194 39z m0-875q-77 0-145 29t-120 81-81 120-29 145 29 146 81 119 120 81 145 29 146-29 119-81 81-119 29-146-29-145-81-120-119-81-146-29z m0 696q-66 0-125-25t-102-69-69-102-25-125 25-125 69-102 102-69 125-25 125 25 102 69 69 102 25 125-25 125-69 102-102 69-125 25z m48-63q4 6 14 9t31-4q22-8 38-17t28-17q13-9 34-29t30-34q8-14 9-22t-1-12q-8-9-58-25t-57-16q-9-1-21-2t-25 8q-6 5-13 15t-8 31q-1 20-3 64t2 51v0z m-270-89q14 19 28 31t25 21q12 10 37 24t41 18 25 2 10-5q6-10 6-62t-1-60q-2-8-5-20t-15-21q-6-5-18-9t-32 2q-20 5-62 16t-47 17q-5 6-5 17t13 29v0z m37-354q-7-3-17 0t-24 22-22 35-13 30q-6 14-12 42t-5 45 5 24 8 10q11 1 61-13t57-19q7-4 18-10t16-21q3-8 2-20t-10-30q-11-17-34-55t-30-40v0z m258-84q-21-6-40-8t-33-2-44 4-44 10q-14 8-20 14t-6 11q2 11 33 52t38 46q6 6 16 14t25 8q8 0 19-4t24-21q13-16 40-51t27-43q0-7-6-15t-29-15v0z m151 103q-12-12-19-16t-13-2q-9 6-39 49t-33 50q-3 7-7 19t0 26q3 8 11 17t26 17q20 7 61 22t50 12q7-2 12-10t5-33q-1-22-5-40t-8-32q-5-15-17-41t-24-38v0z" horiz-adv-x="1000" />

<glyph glyph-name="uniE67C" unicode="&#xe821;" d="M500 707l-499-501 192-194 307 308 307-308 192 194z" horiz-adv-x="1000" />

<glyph glyph-name="uniE67D" unicode="&#xe822;" d="M500 850q-103 0-194-39-92-39-160-107t-107-160q-39-90-39-194t39-194q39-92 107-160t160-107q91-39 194-39t194 39q92 39 160 107t107 160q39 91 39 194t-39 194q-39 92-107 160t-160 107q-90 39-194 39z m-177-718v436l456-216z" horiz-adv-x="1000" />

<glyph glyph-name="uniE67E" unicode="&#xe823;" d="M986 3l-441 765q-19 33-46 33t-47-33l-441-765q-19-33-5-56t52-24h882q39 0 52 24t-6 56v0z m-435 41h-105v105h105v-105z m0 151h-105v382h105v-382z" horiz-adv-x="1000" />

<glyph glyph-name="uniE67F" unicode="&#xe824;" d="M808 542q0 64-25 121-23 55-65 97t-98 66q-56 24-120 24t-120-24q-56-25-98-66t-65-97q-25-57-25-121 0-42 11-81t30-73v0l267-538 267 538v0q19 34 30 73t11 81v0z m-443-114q-14 0-25 10t-10 24 10 25 25 11 25-11 10-25q0-13-10-24t-25-10v0z m263 0q-15 0-25 10t-10 24q0 15 10 25t25 11 25-11 10-25q0-13-10-24t-25-10z m72 34l-5-1t-11-2v2 1q0 24-17 40t-39 16-39-16-16-40v-1-1q-49 0-75 1t-77 0v1 0q0 24-16 40t-40 16q-22 0-38-16t-16-40v0h-6-2l-12 5t-14 26l1 50t45 85l0 10t34 15l57 3t112-7l38-15t64-48l32-7t44-36l8-5t9-12l3-42-4-8t-20-14v0z" horiz-adv-x="1000" />

<glyph glyph-name="uniE680" unicode="&#xe825;" d="M500-148q-99 0-185 37-88 38-153 103t-102 152q-38 87-38 187 0 57 13 113t40 106 64 93q38 44 86 77l14 12 69-97-16-11q-35-25-63-58-29-32-49-70t-30-81q-10-42-10-84 0-76 28-141t77-114 114-78q67-28 141-28t141 28q65 29 114 78t77 114 28 141q0 42-10 84-10 42-30 81t-48 70q-29 33-64 58l-16 11 69 97 14-12q48-33 86-76 37-44 64-94t40-106 14-113q0-48-10-95-9-46-27-89t-44-82-60-73q-33-34-73-60-39-26-82-44t-89-27-94-9v0z m59 461h-118v535h118v-535z" horiz-adv-x="1000" />

<glyph glyph-name="uniE681" unicode="&#xe826;" d="M695 118v-83h-556v555h84v140h-223v-834h834v222h-139z m-13 686l-108-107 111-111h-412v-187l402-1-98-101 117-117 306 306z" horiz-adv-x="1000" />

<glyph glyph-name="uniE682" unicode="&#xe827;" d="M103 783v-863q0-27 19-47t47-19h663q27 0 47 19t19 47v663l-265 265h-464q-27 0-47-19t-19-46v0z m98-797v730q0 14 10 24t23 9h366v-199h199v-564q0-14-10-23t-23-10h-532q-13 0-23 10t-10 23v0 0z m501 230q-3-11-8-22t-14-18q-16-11-33-13t-34 7q-9 5-19 12t-19 13q-3 2-6 3t-6 0q-30-7-59-16t-58-22q-2-1-5-4t-3-5q-10-20-21-38t-25-35q-4-5-9-9t-8-8q-18-13-35-10t-30 19-12 35 15 36q11 15 26 25t32 19q2 2 5 3t4 2q11 4 17 11t10 18q14 34 26 69t22 69v6t-1 7q-8 17-14 36t-7 39q-2 21 7 38t30 23q2 0 4 1t5 1q2 1 5 1l7-2q6-2 10-4t8-6q10-8 13-20t3-22q1-20-2-39t-6-39q-1-3-1-6t1-5q14-29 31-54t37-49q1-1 4-2t6-1q12 1 25 2t24 1q24 0 37-8t21-29v-5-5 0z m-231 13q14 4 28 8t27 9q-7 11-16 23t-16 23q-6-15-12-31t-11-32z" horiz-adv-x="1000" />

<glyph glyph-name="uniE683" unicode="&#xe828;" d="M500 404q-54 0-92-38t-38-92 38-92 92-38 92 38 38 92-38 92-92 38v0z m369 201h-149q0 54-38 92t-92 38h-180q-54 0-92-38t-38-92h-149q-54 0-92-38t-38-92v-380q0-54 38-92t92-38h738q54 0 92 38t38 92v380q0 54-38 92t-92 38v0z m-369-550q-48 0-89 19-42 17-73 49t-50 73q-17 42-17 90 0 46 17 88 19 42 50 74t73 49q41 18 89 18t90-18q41-18 72-49t50-74q18-42 18-88 0-48-18-90-19-42-50-73t-72-49q-42-19-90-19z" horiz-adv-x="1000" />

<glyph glyph-name="uniE684" unicode="&#xe829;" d="M607 243v571h-143v-571h-307l376-375 376 375h-302z" horiz-adv-x="1000" />

<glyph glyph-name="uniE685" unicode="&#xe82a;" d="M697 207q-32 0-60-11t-49-31l-186 133q4 12 7 25t2 27-2 26-7 26l188 133q21-20 49-31t58-10q67 0 114 46t46 114-46 114-114 47q-67 0-114-47t-47-114q0-17 3-32t10-30l-184-130q-21 23-51 36t-64 13q-66 0-113-47t-47-114 47-113 113-47q34 0 64 13t50 34l183-132q-5-14-8-28t-3-31q0-66 47-113t114-47q67 0 114 47t46 113q0 68-46 115t-114 46v0z" horiz-adv-x="1000" />

<glyph glyph-name="uniE686" unicode="&#xe82b;" d="M475 850l-19-19 24-23q-92-4-172-41-81-37-140-100t-94-144-34-175q0-70 21-136 21-66 59-122t92-98q53-44 118-71l16 42q-59 24-108 64-48 39-82 89t-52 109q-19 60-19 123 0 84 31 158 32 74 86 130t126 90q71 33 153 37l-25-25 19-19 65 66-65 65v0z m485-502q0 71-20 138-20 65-58 121t-91 99-119 70l-18-42q60-24 108-63 49-39 83-89t52-110q18-59 18-124 0-82-29-155t-81-129-123-90q-73-35-157-40l29 28-20 19-64-66 65-65 19 19-22 21q90 6 168 45 78 38 136 100t91 142 33 171v0z m-477 167q0-18-37-32t-90-13q-51 0-89 13t-37 32 37 32 89 13q53 0 90-13t37-32z m0-32q0-19-37-32t-90-13q-51 0-89 13t-37 32v-47q0-19 37-32t89-13q53 0 90 13t37 32v47z m0-83q0-19-37-32t-90-13q-51 0-89 13t-37 32v-47q0-19 37-32t89-13q53 0 90 13t37 32v47z m288-53q0-18-38-32t-89-13-90 13-37 32 37 32 90 13q51 0 89-13t38-32v0z m0-31q0-19-38-32t-89-13-90 13-37 32v-47q0-20 37-33t90-13q51 0 89 13t38 33v47 0z m0-84q0-19-38-32t-89-13-90 13-37 32v-47q0-19 37-32t90-13q51 0 89 13t38 32v47 0z m-288 86q0-19-37-32t-90-13q-51 0-89 13t-37 32v-47q0-19 37-32t89-13q53 0 90 13t37 32v47z m0-84q0-19-37-32t-90-13q-51 0-89 13t-37 32v-47q0-20 37-32t89-13q53 0 90 13t37 32v47z" horiz-adv-x="1000" />

<glyph glyph-name="uniE687" unicode="&#xe82c;" d="M475 850l-19-19 24-23q-92-4-172-41-81-37-140-100t-94-144-34-175q0-70 21-136 21-66 59-122t92-98q53-44 118-71l16 42q-59 24-108 64-48 39-82 89t-52 109q-19 60-19 123 0 84 31 158 32 74 86 130t126 90q71 33 153 37l-25-25 19-19 65 66-65 65v0z m485-502q0 71-20 138-20 65-58 121t-91 99-119 70l-18-42q60-24 108-63 49-39 83-89t52-110q18-59 18-124 0-82-29-155t-81-129-123-90q-73-35-157-40l29 28-20 19-64-66 65-65 19 19-22 21q90 6 168 45 78 38 136 100t91 142 33 171v0z m-171-53q-1 36-11 67t-46 49q-63 21-120 66t-164 46h-56q-78 0-121-48t-49-123q-2-22-2-46l1-24q0-30 20-51t51-21q25 0 45 17t24 40h231q5-24 24-40t45-17q27 0 46 17t24 40h59v28h-1v0z m-497-56q-19 0-31 12t-12 31 13 30 30 13 30-13 12-30-12-31-30-12z m369 0q-17 0-30 12t-13 31 13 30 30 13 30-13 13-30-13-31-30-12z m70 56q-5 25-24 41t-46 17q-25 0-45-17t-24-41h-231q-5 25-24 41t-45 17q-12 0-22-4t-20-10l4 34q8 41 37 81t101 41h56q64 0 106-20t80-44q20-14 42-25t46-22q16-7 26-24t13-64h-30v-1z m-103 110h-184q-55 0-74 22t-19 24q-2 5-8 7t-11 0q-6-2-8-8t0-11q1-2 26-33t94-31h184q6 0 10 5t4 10-4 10-10 5v0z" horiz-adv-x="1000" />

<glyph glyph-name="uniE66B" unicode="&#xe82d;" d="M571 779h-71v-72h-71v-71h-72v-72h-357v-428h357v-72h72v-71h71v-72h71v858z m143 0h143v-72h-143v72 0z m143-72h72v-71h-72v71z m72-71h71v-572h-71v572z m-215-643h143v-72h-143v72 0z m143 71h72v-71h-72v71z m-143 143h72v-71h-72v71z m0 357h72v-71h-72v71z m72-71h71v-286h-71v286 0z" horiz-adv-x="1000" />

<glyph glyph-name="uniE66A" unicode="&#xe82e;" d="M492 755q86 2 163-28t135-84 92-128q35-73 36-157 2-84-29-158-32-76-87-132t-132-89q-75-33-162-34-87-2-163 28-77 30-135 85t-92 127q-35 73-36 157-2 84 29 158 32 76 87 132t132 89q75 33 162 34v0z" horiz-adv-x="1000" />

<glyph glyph-name="uniE669" unicode="&#xe82f;" d="M492 755q86 2 163-28t135-84 92-128q35-73 36-157 2-84-29-158-32-76-87-132t-132-89q-75-33-162-34-87-2-163 28-77 30-135 85t-92 127q-35 73-36 157-2 84 29 158 32 76 87 132t132 89q75 33 162 34v0z" horiz-adv-x="1000" />

<glyph glyph-name="uniE668" unicode="&#xe830;" d="M977 400l-527-527q-23-23-56-23t-57 23l-314 314q-23 23-23 56t23 56l527 527q14 13 30 19t34 3l-2 2 275-60q9-2 25-12t26-40l56-252q9-22 5-45t-22-41v0z m-132 294q-25 24-59 24t-58-24q-25-24-25-58t25-59 58-25 59 25 24 59-24 58v0z" horiz-adv-x="1000" />

<glyph glyph-name="uniE667" unicode="&#xe831;" d="M770 290q-32 0-54-23t-23-54 23-53 54-23q32 0 54 23t22 53-22 54-54 23z m-575 0q-31 0-53-23t-23-54 23-53 53-23 54 23 23 53-23 54-54 23v0z m778 61q-3 13-20 26l-16 14q-29 60-99 76l-69 16q-29 36-67 62-38 26-73 43t-59 25l-23 9q-63 10-128 13-65 2-119 1t-88-5l-34-3q-78-8-77-31l2-22q-49-38-71-89-21-52-28-98t-4-78l3-32q4-46 29-56l26-10h4 12v1q0 50 36 86t85 35 86-35 35-86v-1-2q110 0 168-1t164-2v3 3q0 50 36 86t86 35 85-35 36-86v-4-3q12 0 25 3l12 3q37 13 44 30l8 16-7 93v0z" horiz-adv-x="1000" />

<glyph glyph-name="uniE666" unicode="&#xe832;" d="M500-150q-103 0-194 39-91 40-159 108t-108 159q-39 91-39 194t39 194q40 91 108 159t159 108q91 39 194 39t194-39q91-40 159-108t108-159q39-90 39-194t-39-194q-40-91-108-159t-159-108q-90-39-194-39z m0 922q-87 0-164-33t-134-91-91-134-33-164 33-164 91-134 134-91 164-33 164 33 134 91 91 134 33 164-33 164-91 134-134 91-164 33z m54-391q-3 2-5 4t-4 3v0l-37 27q-36 26-81 57t-84 56q-38 24-41 20-4-3 20-41 26-39 56-84t58-81l25-37h1q1-2 3-4l4-4q17-17 42-17t42 17q17 17 17 42t-16 42v0z m-54 225q-8 0-14 5t-5 14v53q0 8 5 14t14 6v0q8 0 14-6t6-14v-53q0-8-6-14t-14-5v0z m-129-34q-7-5-15-3t-11 10l-27 45q-3 7-2 15t9 12v0q7 4 15 2t13-9l26-46q4-7 2-15t-10-11v0z m-94-95q-4-7-11-9t-15 2l-46 27q-8 3-10 11t2 15v0q4 7 12 9t16-1l46-28q6-4 8-11t-2-15v0z m-34-129q0-8-6-14t-13-5h-54q-8 0-14 5t-6 14v0q0 9 6 14t14 6h54q7 0 13-6t6-14v0z m34-128q4-8 2-15t-8-12l-46-27q-8-3-16-1t-12 9v0q-4 7-2 15t10 12l46 26q7 4 15 2t11-9v0z m94-95q8-3 10-11t-2-15l-26-46q-5-7-13-9t-15 1v0q-7 5-9 13t2 15l27 46q4 6 11 8t15-2v0 0z m258 0q7 4 15 2t11-8l27-46q4-7 2-15t-9-13v0q-7-4-15-1t-12 9l-27 46q-4 7-1 15t9 11v0z m94 95q4 7 11 9t15-2l47-26q7-4 9-12t-2-15v0q-4-8-12-9t-16 1l-44 27q-8 4-10 12t2 15v0z m34 128q0 9 6 14t13 6h54q8 0 14-6t6-14v0q0-8-6-14t-14-5h-54q-7 0-13 5t-6 14v0 0z m-34 129q-4 7-2 15t9 11l45 28q8 4 16 1t12-9v0q4-7 2-15t-9-11l-47-27q-7-4-15-2t-11 9v0z m-94 95q-7 4-9 11t1 15l27 46q4 7 12 9t15-2v0q7-4 9-12t-2-15l-27-45q-4-7-11-10t-15 3v0 0z" horiz-adv-x="1000" />

<glyph glyph-name="uniE665" unicode="&#xe833;" d="M500 850q-103 0-194-31-92-30-160-84t-107-126q-39-71-39-153 0-59 21-113t58-100v0 0q1-1 11-15t16-19q30-36 41-78 11-42 9-85t-15-84q-13-40-33-74 76 59 141 99t111 53q41 13 76 17t64 4q104 0 194 31 92 31 160 85t107 125 39 154q0 82-39 153-39 72-107 126t-160 84q-90 31-194 31v0z" horiz-adv-x="1000" />

<glyph glyph-name="uniE664" unicode="&#xe834;" d="M236 774h764v-85h-764v85 0z m0-254h764v-85h-764v85 0z m0-255h764v-85h-764v85 0z m0-254h764v-85h-764v85 0z m-88 721q0-31-21-53t-53-21-52 21-22 53q0 30 22 52t52 22 53-22 21-52z m0-255q0-30-21-52t-53-22-52 22-22 52q0 31 22 53t52 21 53-21 21-53z m0-254q0-31-21-53t-53-21-52 21-22 53q0 30 22 52t52 22 53-22 21-52z m0-255q0-30-21-52t-53-22-52 22-22 52q0 31 22 53t52 21 53-21 21-53z" horiz-adv-x="1000" />

<glyph glyph-name="uniE663" unicode="&#xe835;" d="M1000 707h-786v72h786v-72z m0-214h-786v-72h786v72z m0-286h-786v-71h786v71z m-929 572h-71v-72h71v72z m0-286h-71v-72h71v72z m0-286h-71v-71h71v71z" horiz-adv-x="1000" />

<glyph glyph-name="uniE662" unicode="&#xe836;" d="M236 774h764v-85h-764v85 0z m0-254h764v-85h-764v85 0z m0-255h764v-85h-764v85 0z m0-254h764v-85h-764v85 0z m-88 721q0-31-21-53t-53-21-52 21-22 53q0 30 22 52t52 22 53-22 21-52z m0-255q0-30-21-52t-53-22-52 22-22 52q0 31 22 53t52 21 53-21 21-53z m0-254q0-31-21-53t-53-21-52 21-22 53q0 30 22 52t52 22 53-22 21-52z m0-255q0-30-21-52t-53-22-52 22-22 52q0 31 22 53t52 21 53-21 21-53z" horiz-adv-x="1000" />

<glyph glyph-name="uniE661" unicode="&#xe837;" d="M224-150h-207v667h207v-667z m-104 758q-50 0-85 35t-35 85 35 85 85 35 85-35 35-85-35-85-85-35v0z m880-758h-207v324q0 58-14 117t-93 60q-81 0-103-53t-22-118v-330h-207v667h199v-91h3q20 39 70 73t126 35q78 0 127-25t76-67 35-101q10-58 10-126v-365 0z" horiz-adv-x="1000" />

<glyph glyph-name="uniE660" unicode="&#xe838;" d="M307 850q-45 0-88-7t-83-20v-293h55v13q0 20 14 33t32 13h140q19 0 32-13t14-33v-13h56v293q-40 13-84 20t-88 7z m0-189q-18 0-31 12t-12 32q0 17 12 30t31 13q18 0 31-13t13-30q0-19-13-32t-31-12z m385 189q-44 0-87-7t-83-20v-293h55v13q0 20 14 33t32 13h140q18 0 32-13t14-33v-13h55v293q-40 13-83 20t-89 7v0z m0-189q-17 0-30 12t-13 32q0 17 13 30t30 13q19 0 32-13t12-30q0-19-12-32t-32-12z m-208-447l-119 347h-123l125-397q24 21 54 34t63 16v0z m272 347h-123l-118-347q33-2 63-15t54-34l124 396v0z m-252-378q-1 0-2 1l-1 0q-2 0-3 0t-3-1q-35-1-65-15t-52-39q-21-22-32-51t-12-61q0-69 49-118t118-49q68 0 117 49t49 118q0 33-12 63t-34 51q-21 24-52 38t-65 14v0z m-3-245q-33 0-56 23t-23 56q0 32 23 55t56 23q32 0 55-23t23-55-23-56-55-23z" horiz-adv-x="1000" />

<glyph glyph-name="uniE65F" unicode="&#xe839;" d="M607 838h-250q-25 0-51-3t-55-8q-29-7-57-22t-54-37q-39-38-58-81t-19-91q0-39 13-73t41-64q27-31 65-47t88-17q8 0 19 0t21 2q-2-5-4-10t-4-12q-3-5-4-12t-1-16q0-15 3-26t10-23q5-9 10-19t13-20q-21 0-49-3t-60-8q-34-5-66-18t-62-29q-27-17-46-36t-28-42q-11-21-17-41t-5-38q0-36 17-68t48-57q33-28 82-43t115-14q78 1 138 20t101 56q40 36 60 78t20 88q0 32-7 59t-21 47q-16 20-33 38t-37 36l-43 35q-3 5-8 10t-10 12q-6 6-9 14t-3 19q0 10 3 20t9 17q4 7 9 14t11 13q10 8 19 17t18 17q7 8 15 17t15 20q14 21 21 48t8 62q0 19-2 35t-6 31q-6 14-11 26t-12 23-14 20-13 17q-8 7-15 12t-12 9h77l77 46v0z m-137-699q15-18 23-40t8-46q0-29-11-54t-34-44q-23-19-57-29t-78-11q-49 0-88 12t-67 33q-30 22-45 50t-15 62q0 17 4 32t10 26q6 12 13 22t16 17 18 14 18 10q7 4 14 6t12 5q20 6 41 11t38 7q21 2 33 3t17-1h15t12-1q35-25 61-46t42-38z m-40 377q-2-13-8-25t-13-25q-16-17-37-26t-45-10q-19 0-37 6t-32 19q-16 11-28 26t-22 33q-19 37-30 73t-10 72q0 26 7 50t20 45q17 21 38 31t47 11q19-1 36-6t32-17q14-12 26-27t21-34q18-38 28-76t10-76q0-9-1-20t-2-24v0z m434-77v137h-75v-137h-132v-79h132v-133h75v133h136v79h-136v0z" horiz-adv-x="1000" />

<glyph glyph-name="uniE65E" unicode="&#xe83a;" d="M982 486q-10 42-28 80t-41 72-51 64q-28 29-60 52-3-2-7-2t-4 2q-2-1-2-2l-1-1q1-1 1-1t-1 1l0 1t-3 0l-2-3q-3 6-6 6t-7-4q-4 4-6 0t-4-5q-2 2-13 2t-13-3q-2 3-4 2t-6-2q19-31 10-41t-28-35q-1 2-14-5t-12-10q-42 17-34-22t14-58q-4-2-9-4t-6-3q-4 3-9 6t-4 9l-31-44t5-41q24 3 66-30t45-40q9 2 35-9t55-24 51-25l23-12q17-6-12-42t-20-48q1 11 15 1t16-12q10 7 23 14t22 18q3-6 0-21t6-14q10 1 21 4t18-2q10-6-3-33t-16-33q-9-13-43-62t-54-43q0-2-11-7t-13-7q-17 25-37-16t-20-50q-2 2-7 3t-5-4q-5 0-9 4t-5 7q-4-11-20-23t-30-10q0-10-17-21t-26-15q-6-5-17-23t-19-20q-44-19-22 1t17 61q-3 21 14 38t29 38q11 18 28 52t-8 54q6 4-4 20t-13 20q-8 11-6 25t0 15q3 2-10 20t-17 31q-3 11 1 34t13 28q28 18 16 42-12 25-39 47t-55 38q-30 17-35 17-17 0-26 2t-29 21q-27 25-43 58t-28 74q-11 41-14 34t-4-39q8-1 2-19t-17-21q-9 33-12 90t20 68q2-3 3-2t6 1q-3 12 1 19t12 14q4 4-3 17t-5 16q-9 7-5 12t10 9q-3-2-5 1t-1 5q-5-1-10-2t-9-2q-99-27-178-89-77-61-125-144t-62-182q-15-97 13-197 26-101 88-178 61-78 144-126t182-62q97-14 198 12 100 28 178 89 77 62 125 145t62 181q15 98-13 198v0z m-310 1l-8-2q-8-1-11 3t-1 8q3 2 4 2t0 4l5 2q2 0 4 1t2 0l3-2 1-3q2-5 2-4t1-5l-2-4v0z m27 13q-3 3-3 2t-4 1q-1 1-2 3t-1 2q-4 0-3 1t-3 0q-1 3-4 7t-4 3l-3-1-1 3-5-2-3 2q-1 2-2 2l-1 1q-1-1-1-1t1 1l1 0t0 2q-4 1-3 1t-3 1l-1 5q-4 2-6 4t-4 2q-2 3-6 6t-8 6q6 6 7 5t2 3q4 1 5 0t5 0l3 1 3-2 4-2 2-11q4-2 7-5t4-2l3 1 1-6q4 0 3-1t4-3q3-2 4-3t3-3q4 0 3-1t3 0l3-2q2-3 4-5t4-2l2-8q-4-2-5-3t-5-2v0z m36-9q-4-2-4-2t-1 3l-7-8q-6 14-4 12t2 7l5 1q2-3 3-2t5 2l3-2q0-3 0-4t0-4l-2-3v0z m40-6q-2-1-6-1h-7l-3 13 4 1t4-2l2 3 4-1 5-1q-4-3-2-4t-1-8v0z" horiz-adv-x="1000" />

<glyph glyph-name="uniE65D" unicode="&#xe83b;" d="M0 350l1000 500-429-1000v500h-571z" horiz-adv-x="1000" />

<glyph glyph-name="uniE65C" unicode="&#xe83c;" d="M609 850l-101-105h301l-254-263 75-78 255 262v-311l101 105v390h-377v0z m-170-642l-74 77-249-257 1 304-99-102v-380h367l99 102h-294l249 256v0z" horiz-adv-x="1000" />

<glyph glyph-name="uniE65B" unicode="&#xe83d;" d="M920 385h-99v-71h-71l-143 142h-133v72h133v73h-357v-73h143v-72h-143l-71-71h-72v-71h-71v71h-72v-214h72v72h71v-72h73l141-213h429v72h71v-72h99l22 31t22 176v32t-4 72-13 75-27 41v0z" horiz-adv-x="1000" />

<glyph glyph-name="uniE65A" unicode="&#xe83e;" d="M956 444h-99v-71h-71l-143 142h-133v71h133v73h-357v-73h143v-71h-143l-72-71h-71v-71h-72v71h-71v-214h71v71h72v-71h73l141-214h429v71h71v-71h99l22 30t22 176v32q0 34-4 73t-13 75q-9 36-27 42v0z" horiz-adv-x="1000" />

<glyph glyph-name="uniE659" unicode="&#xe83f;" d="M567-22q-20 25-41 63-21 39-30 90t1 115 50 137q53 85 96 134 44 50 83 84t75 61q37 28 76 69 45-74 69-148t36-131 13-96q2-36 2-38 0-1-1-57-2-55-36-121t-115-124q-82-57-241-63 87 131 139 254 51 123 77 217t34 151l6 56-25-90t-67-204-94-220q-52-107-107-139v0z m-92 86l-30-4q-29-5-74 3t-100 38q-55 29-108 97-52 67-84 156-32 90-50 170t-23 137l-6 55 45-3q45-2 107-11t128-28q67-18 109-50 99-67 132-126l33-58-16-23q-15-23-33-61t-30-86q-12-48-6-99-38 78-80 140-42 61-90 113t-101 103-113 106q54-64 110-128 58-64 111-133t97-144q44-76 72-164v0z" horiz-adv-x="1000" />

<glyph glyph-name="uniE658" unicode="&#xe840;" d="M803 850q0-107-101-151-99-45-220-99t-221-151q-101-99-101-313 0-161 36-224l35-62h72l-17 15t-36 47-37 88-17 136q0 53 50 105t110 91 111 65l51 24-45-26q-44-26-98-69t-98-97q-45-54-45-108 171-28 300 44 130 74 207 192t96 255q20 136-32 238v0z" horiz-adv-x="1000" />

<glyph glyph-name="uniE657" unicode="&#xe841;" d="M979 688q-6 8-16 12t-18 7h-222-223-223-222q-9-3-17-8t-18-10q60-52 120-104 60-50 120-102t120-104q60-50 120-102 60 52 120 102 60 52 119 103t120 102l120 104v0z m-91-598q-17 14-33 28t-33 28q-11 10-23 19t-22 20q-16 15-33 28t-33 29q-11 9-22 19t-22 19q-10 9-19 17t-20 16q-3 3-5 2t-5-2q-13-12-27-23t-26-25q-16-14-32-28t-33-29q-14 12-26 24t-27 23q-16 15-32 29t-33 29q-3 2-5 2t-5-2q-13-11-26-22t-26-22q-15-14-31-26t-30-27q-13-10-25-20t-23-21q-16-13-32-27t-32-27-31-27-31-27-32-27-31-28q5-8 15-12t18-7h222 223 223 222q9 3 17 8t19 9q-13 11-24 21l-21 19q-12 10-24 20t-24 20v0z m89 536q-14-11-27-23t-26-23q-18-16-36-32t-36-31q-13-11-25-21t-24-22q-18-15-35-30t-36-30q-9-8-19-17t-19-17q-10-8-20-17t-21-19q12-10 23-20t23-20l35-29 36-29q18-16 36-32t36-30q20-19 42-36t42-35q18-16 37-32t37-32v149 149 150 148q-6-5-12-9t-11-10v0z m-670-246q-18 15-34 29t-34 29q-13 12-27 23t-25 24q-25 20-49 41t-48 42q-17 14-34 30t-33 29q-6 5-12 9t-11 9v-148-150-149-149q43 37 87 74 43 37 86 74t87 73q44 37 87 74-11 10-21 19l-19 17v0z" horiz-adv-x="1000" />

<glyph glyph-name="uniE656" unicode="&#xe842;" d="M650 850h-579v-1000h786v793z m-7-94l121-120h-121v120z m-500-835v858h428v-215h215v-643h-643v0z m500 429h-357v71h357v-71z m0-143h-357v72h357v-72z m0-143h-357v72h357v-72z" horiz-adv-x="1000" />

<glyph glyph-name="uniE655" unicode="&#xe843;" d="M500 282q-89 0-169 15t-144 43-108 64q-45 37-62 80-5-13-8-26t-3-27q0-53 39-99 39-46 106-81t157-54q90-21 192-21t192 21q90 19 157 54t106 80q38 47 38 100 0 14-2 27t-8 26q-18-44-62-80-44-37-108-64t-144-43-169-15v0z m0-160q-89 0-169 15t-144 43-108 64q-45 36-62 80-5-13-8-26t-3-27q0-53 39-100 39-46 106-80t157-54q90-21 192-21t192 21q90 19 157 54t106 80q38 47 38 100 0 14-2 27t-8 26q-18-43-62-80t-108-64-144-43-169-15z m0-167q-89 0-169 16-80 15-144 42t-108 64q-45 37-62 80-5-13-8-26t-3-26q0-53 39-100 39-46 106-80t157-56q90-19 192-19t192 20q90 20 157 55t106 80q38 47 38 100 0 13-2 26t-8 26q-18-43-62-80t-108-64-144-42q-80-16-169-16v0z m0 895q-102 0-192-19-90-21-157-56t-106-80-39-99 39-99q39-46 106-81t157-54q90-21 192-21t192 21q90 19 157 54t106 81q38 46 38 99t-38 99q-39 46-106 80t-157 56q-89 19-192 19z m-163-288l17 67h294l15-67h-326z" horiz-adv-x="1000" />

<glyph glyph-name="uniE654" unicode="&#xe844;" d="M1000 457l-19 20-50 50-72 71-82 82v-167h-554v167l-223-223 20-18q18-20 49-51l72-71t82-81v166h221v-445h112v445h221v-166l223 221v0z" horiz-adv-x="1000" />

<glyph glyph-name="uniE653" unicode="&#xe845;" d="M872 581q-55 34-96 56t-43 18l-107-170-28-45q-3-5-2-11t6-9l61-38q15-9 18-25t-5-31l-70-111-40-56t-77-70q-35 15-72 73l-37 58-64 114q-8 15-3 32t19 25l63 34q4 3 6 9t-2 10l-26 48-99 173q-1 5-43-15t-99-52-95-58-37-29l125-221q3-5 8-7t11 2l62 35q15 9 31 4t26-21l63-113 33-65t22-101v0q-1-3-2-6t-2-6q-1-4-2-7t-2-8q-1-1-1-2v-1q-1-1-1-3t-1-3v-5t-1-5v-16t2-17v-1 0q1-6 4-12t4-10q2-4 3-8t4-7q5-8 10-15t10-11v0l4-3t3-3v0 0q2-2 4-3t5-3q7-4 14-8t14-5q4-2 8-3t8-1q5-1 9-2t9 0h8t7 1q5 0 11 1t11 3q4 1 9 2t9 5q5 2 9 5t10 5q1 1 2 2t3 3v0q5 4 10 10t9 12q4 5 7 10t5 10 4 9 3 8q1 2 1 3t1 4q0 3 0 6t1 6q1 2 1 5v6 10t-1 9v1 1q0 1-1 2t0 3q-1 4-3 9t-3 10q0 2-1 4t0 3v0q-9 37 27 101l35 63 70 110q9 15 26 19t31-6l61-38q5-3 10-1t8 6l29 45 107 170q2 4-35 31t-93 63v0z m-383-657q-18 0-32 13t-14 33q0 19 14 32t32 14q20 0 34-14t13-32q0-19-13-33t-34-13z" horiz-adv-x="1000" />

<glyph glyph-name="uniE652" unicode="&#xe846;" d="M868 290q-10 17-14 35t-5 35q-39 9-74 33t-57 61q-18 30-25 63t-3 64q-11 9-21 19t-16 22q-30 48-17 105t63 86q-53 21-111 31-58 9-116 5t-116-21-112-50q-89-55-147-136-58-80-81-173t-9-192q15-99 69-187 54-89 136-146 82-57 176-80t194-9q100 14 189 68 44 27 81 61 37 33 65 72t49 83q20 43 32 90-37-5-73 11t-57 50v0z m-526-210q-22-14-47-8t-37 27q-14 22-7 46t27 38q22 13 47 7t37-27q14-22 8-46t-28-37v0z m-96 310q-22-13-47-7t-38 28q-13 21-7 45t28 38q21 13 46 7t39-28q12-21 6-46t-27-37v0z m182 223q-22-13-47-7t-37 27q-14 22-8 46t28 37q22 14 47 8t37-27q14-23 8-47t-28-37v0z m94-282q-22-14-47-8t-37 27q-14 22-8 46t28 38q22 13 46 7t38-27q14-22 7-46t-27-37z m211-134q-21-13-46-7t-38 27q-13 22-7 46t28 38q21 13 46 7t38-27q14-22 8-46t-29-38v0z m-86-230q-22-13-47-7t-37 28q-14 21-8 46t28 38q22 12 46 7t39-28q13-21 7-46t-28-38v0z" horiz-adv-x="1000" />

<glyph glyph-name="uniE651" unicode="&#xe847;" d="M924 360l-193 39-72 29t-93 39q-25 13-67 20-43 6-90 6t-93-7q-46-6-80-19l-215-90-21-140q0-6 9-26t61-20h1 2q8-25 30-40t48-15 49 15 30 40h128 132 117 89q8-25 30-40t48-15q29 0 50 15t30 40h43 28q23 0 45 22 21 22 28 51t-9 57q-14 28-65 39v0z" horiz-adv-x="1000" />

<glyph glyph-name="uniE650" unicode="&#xe848;" d="M714 636v143h-428v-143h-72v-643h572v643h-72z m-357 71h286v-70h-286v70 0z m-214-714h-109q-13 0-24 10t-10 24v575q0 14 10 24t24 10h109v-643 0z m857 609v-575q0-14-10-24t-24-10h-109v643h109q14 0 24-10t10-24v0z" horiz-adv-x="1000" />

<glyph glyph-name="uniE634" unicode="&#xe849;" d="M909 351l-501 499-194-192 308-307-308-307 193-192z" horiz-adv-x="1000" />

<glyph glyph-name="uniE635" unicode="&#xe84a;" d="M621 140q1-5 2-10t1-10v-21-21q0-36-24-66-26-30-68-53t-98-36q-58-13-122-13t-122 13q-56 13-99 36t-67 53q-24 31-24 66v21 21q0 4 1 10t2 10q7-30 34-58 27-26 68-46t94-31q53-11 113-11t113 11q53 11 94 31t68 46q26 28 34 58v0z m-309 231q-65 0-122-13-56-14-99-36t-67-53q-24-31-24-65 0-36 24-66t67-53 99-36q57-13 122-13t122 13q56 13 98 36t68 53q24 30 24 66 0 34-24 65-26 30-68 53t-98 36q-58 13-122 13z m374 84q65 0 122 13 56 13 99 36t67 53 24 66-24 65-67 53-99 36q-57 13-122 13-65 0-121-13-57-13-100-36t-67-53-24-65 24-66 67-53 100-36q56-13 121-13z m0-42q-60 0-113 11-52 11-94 31t-68 46q-27 28-34 59-1-6-2-11t-1-10v-21-21q0-27 15-51t42-45q45-9 84-25t69-38q23-4 49-6t54-2q64 0 121 12 56 14 99 36t67 53q24 31 24 66v21 21q0 5-1 10t-2 11q-7-31-34-59-26-26-68-46t-94-31q-53-11-113-11v0z m0-125q-13 0-26 0t-25 2q14-20 22-42t8-44h10 11q65 0 122 12 56 14 99 36t67 54q24 30 24 65v21 21q0 5-1 10t-2 11q-7-31-34-58-26-27-68-46t-94-32q-53-10-113-10v0z m0-126h-10-11v-39-44q6-1 11-1h10q65 0 122 13 56 13 99 36t67 53 24 66v21 21q0 4-1 10t-2 10q-7-31-34-58-26-27-68-46t-94-32q-53-10-113-10v0z" horiz-adv-x="1000" />

<glyph glyph-name="uniE636" unicode="&#xe84b;" d="M1000 10l-556 556q16 56 1 115t-58 103q-45 45-104 59t-115-1l139-138-54-107-106-54-139 139q-16-57-1-115t59-104q44-44 103-58t115 0l556-555 160 160v0z" horiz-adv-x="1000" />

<glyph glyph-name="uniE637" unicode="&#xe84c;" d="M501 271q-90 0-170 14-79 13-143 37t-109 57q-44 34-61 72-5-12-8-24t-3-23q0-47 39-89 39-41 106-72t157-48q89-19 192-19 102 0 191 19 90 17 158 48t105 72q39 42 39 89 0 11-3 24t-8 23q-17-38-61-72-45-33-108-57t-144-37-169-14z m0-160q-90 0-170 13-79 15-143 39t-109 57q-44 33-61 72-5-11-8-23t-3-24q0-47 39-89 39-41 106-73t157-48q89-19 192-19 102 0 191 19 90 17 158 48t105 73q39 42 39 89 0 12-3 24t-8 23q-17-39-61-72-45-33-108-57t-144-39q-80-13-169-13z m0-167q-90 0-170 13-79 14-143 38t-109 57q-44 33-61 72-5-11-8-23t-3-23q0-48 39-89t106-72 157-49q89-18 192-18 102 0 191 18 90 18 158 49t105 72q39 42 39 89 0 11-3 23t-8 23q-17-39-61-72-45-32-108-57t-144-38-169-13v0z m493 652q0-53-39-99-38-46-105-81t-158-54q-89-21-191-21-103 0-192 21-90 19-157 54t-106 81q-39 46-39 99 0 52 39 99 39 46 106 80t157 55q89 20 192 20 102 0 191-20 90-20 158-55t105-80q39-47 39-99z" horiz-adv-x="1000" />

<glyph glyph-name="uniE638" unicode="&#xe84d;" d="M539-150l172 172-171 178 432-1v301h-432l167 162-188 188-491-490z" horiz-adv-x="1000" />

<glyph glyph-name="uniE639" unicode="&#xe84e;" d="M461 850l-172-172 171-178-432 1v-301h432l-167-161 188-189 491 490z" horiz-adv-x="1000" />

<glyph glyph-name="uniE63A" unicode="&#xe84f;" d="M0 850v-1000h553v398h-102v136h102v73l3 27q2 25 22 56t66 57q46 26 131 26h79v-138h-70l-26-10t-26-61v-30h122v-136h-122v-398h268v1000h-1000z" horiz-adv-x="1000" />

<glyph glyph-name="uniE63B" unicode="&#xe850;" d="M1000-150h-1000v1000h1000v-1000z m-485 720h47l33 20h-60-89q-49 0-89-32t-40-77 32-76 82-32h6 7q-4-5-5-12t-2-15q0-13 5-23t15-18h-13-13q-62 0-104-33t-42-74q0-40 45-64t108-23q70 0 107 33t38 73q0 32-11 54t-41 43q-9 8-24 22t-15 25q0 12 6 20t23 22q18 14 30 35t12 45q0 27-13 50t-35 37v0z m245-200h-60v60h-40v-60h-60v-39h60v-61h40v61h60v39 0z m-251 108q-5 37-29 64t-52 28q-29 0-46-26t-12-62q5-38 29-66t53-28q29 0 45 26t12 64v0z m36-267q0 4-1 8t-1 8q-5 19-20 30t-40 28q-7 3-17 4t-20 2q-42 0-74-22t-33-56 27-55 71-24q60 0 84 23t24 54z" horiz-adv-x="1000" />

<glyph glyph-name="uniE63C" unicode="&#xe851;" d="M659 483h78q13 0 22 9t10 22v75q0 13-10 22t-22 10h-78q-13 0-22-10t-9-22v-75q0-13 9-22t22-9z m-18-131q0-57-41-96t-99-40q-59 0-99 40t-41 96q0 56 41 95t99 40q58 0 99-40t41-95z m76-8q0-44-18-82-16-38-46-66t-68-45q-40-16-84-16-45 0-84 16-40 16-69 45t-46 66-17 82q0 16 2 30t7 30h-64v-294q0-11 8-19t20-9h483q12 0 20 9t8 19v294h-61q4-15 6-30t3-30v0z m-717 506v-1000h1000v1000h-1000z m848-758q0-37-27-63t-63-27h-516q-37 0-63 27t-27 63v516q0 37 27 63t63 27h516q37 0 63-27t27-63v-516z" horiz-adv-x="1000" />

<glyph glyph-name="uniE63D" unicode="&#xe852;" d="M0 850v-1000h1000v1000h-1000z m361-750h-103v334h103v-334 0z m-51 380q-25 0-42 18t-18 42q0 25 18 42t42 18q25 0 43-18t17-42q0-25-17-42t-43-18z m440-380h-103v162q0 29-7 59t-47 30-51-26-12-60v-165h-103v334h99v-46h2q10 20 35 37t63 18q79 0 102-46t23-113v-184h-1z" horiz-adv-x="1000" />

<glyph glyph-name="uniE63E" unicode="&#xe853;" d="M589 527q0-37-26-63t-63-26-63 26-26 63q0 36 26 62t63 27 63-27 26-62z m-589 323v-1000h1000v1000h-1000z m500-143q75 0 128-53t53-127q0-75-53-129t-128-53-128 53-53 128q0 75 53 128t128 53v0z m161-465q-29-19-65-27t-61-11l29-29 107-106q12-13 12-30t-12-29l-5-5q-13-12-30-12t-29 12q-20 21-48 49t-59 58l-106-107q-12-12-29-12t-30 12l-5 5q-12 12-12 29t12 30q21 19 48 48t59 58l29 29q-26 2-62 11t-64 27q-34 21-48 38t0 44q7 15 27 23t48-16q38-30 86-35l47-5 47 5t85 35q28 23 49 16t27-23q14-28 1-44t-48-38z" horiz-adv-x="1000" />

<glyph glyph-name="uniE63F" unicode="&#xe854;" d="M743 176v-7h48q0 21-4 33t-19 11q-14 0-19-12t-6-25v0z m25-125q-53 0-63 32t-10 67q0 37 13 66t62 30q41 0 54-26t13-68v-11h-94v-15q0-16 5-30t19-14q11 0 17 10t7 26h43q-1-33-17-50t-49-17v0z m-175 158q-16 0-21-15t-5-46 5-46 21-15 20 15 4 46-4 46-20 15v0z m-73-154v247h47v-78 0q8 11 18 16t22 6q31 0 44-23t14-75-14-74-44-23q-13 0-23 6t-18 18h-1v-20h-45v0z m-67 498q0 34 8 60t33 25q28 0 35-25t7-60-8-59-34-26q-25 0-33 26t-8 59z m-22-475q-8-15-20-21t-27-7q-23 0-35 13t-13 41v137h48v-128q0-14 5-20t15-6q12 0 19 8t7 23v123h47l1-186h-46v23h-1v0z m-111 183h-53v-206h-50v206h-54v40h157v-40z m285 247q0-18 6-42t50-24q15 0 29 8t22 22h1v-25h31v213h-33v-147q0-23-14-33t-28-10q-22 0-27 15t-4 28v147h-33v-152 0z m-186 45q0-45 15-78t61-33 61 33 15 78-15 78-61 34-61-34-15-78v0z m-128 176h-37l74-171v-111h35v111l75 171h-37l-55-132z m-291 121h1000v-1000h-1000v1000z m829-453h-658q-22-4-36-19t-14-37v-320q0-22 14-36t36-14h658q22 0 36 14t14 36v320q0 22-14 37t-36 19v0z" horiz-adv-x="1000" />

<glyph glyph-name="uniE640" unicode="&#xe855;" d="M500-150q-103 0-194 39-91 40-159 108t-108 159q-39 91-39 194t39 194q40 91 108 159t159 108q91 39 194 39t194-39q91-40 159-108t108-159q39-90 39-194t-39-194q-40-91-108-159t-159-108q-90-39-194-39z m0 922q-87 0-164-33t-134-91-91-134-33-164 33-164 91-134 134-91 164-33 164 33 134 91 91 134 33 164-33 164-91 134-134 91-164 33z m54-391q-3 2-5 4t-4 3v0l-37 27q-36 26-81 57t-84 56q-38 24-41 20-4-3 20-41 26-39 56-84t58-81l25-37h1q1-2 3-4l4-4q17-17 42-17t42 17q17 17 17 42t-16 42v0z m-54 225q-8 0-14 5t-5 14v53q0 8 5 14t14 6v0q8 0 14-6t6-14v-53q0-8-6-14t-14-5v0z m-129-34q-7-5-15-3t-11 10l-27 45q-3 7-2 15t9 12v0q7 4 15 2t13-9l26-46q4-7 2-15t-10-11v0z m-94-95q-4-7-11-9t-15 2l-46 27q-8 3-10 11t2 15v0q4 7 12 9t16-1l46-28q6-4 8-11t-2-15v0z m-34-129q0-8-6-14t-13-5h-54q-8 0-14 5t-6 14v0q0 9 6 14t14 6h54q7 0 13-6t6-14v0z m34-128q4-8 2-15t-8-12l-46-27q-8-3-16-1t-12 9v0q-4 7-2 15t10 12l46 26q7 4 15 2t11-9v0z m94-95q8-3 10-11t-2-15l-26-46q-5-7-13-9t-15 1v0q-7 5-9 13t2 15l27 46q4 6 11 8t15-2v0 0z m258 0q7 4 15 2t11-8l27-46q4-7 2-15t-9-13v0q-7-4-15-1t-12 9l-27 46q-4 7-1 15t9 11v0z m94 95q4 7 11 9t15-2l47-26q7-4 9-12t-2-15v0q-4-8-12-9t-16 1l-44 27q-8 4-10 12t2 15v0z m34 128q0 9 6 14t13 6h54q8 0 14-6t6-14v0q0-8-6-14t-14-5h-54q-7 0-13 5t-6 14v0 0z m-34 129q-4 7-2 15t9 11l45 28q8 4 16 1t12-9v0q4-7 2-15t-9-11l-47-27q-7-4-15-2t-11 9v0z m-94 95q-7 4-9 11t1 15l27 46q4 7 12 9t15-2v0q7-4 9-12t-2-15l-27-45q-4-7-11-10t-15 3v0 0z" horiz-adv-x="1000" />

<glyph glyph-name="uniE641" unicode="&#xe856;" d="M500 850q-103 0-194-39-92-39-160-107t-107-160q-39-90-39-194t39-194q39-92 107-160t160-107q91-39 194-39t194 39q92 39 160 107t107 160q39 91 39 194t-39 194q-39 92-107 160t-160 107q-90 39-194 39z m0-82q67 0 128-20 62-20 112-56t90-85q38-49 62-109-1-16-7-33t-24-21q-37-15-73-9-36 5-78 17t-95 25q-51 13-120 14-69-1-121-14-52-14-94-25t-77-18q-36-5-73 10-13 4-19 13t-8 22q19 63 58 116 38 53 91 91t115 61 133 21v0z m109-454q0-45-31-77t-78-32-78 32-31 77q0 46 31 78t78 32 78-32 31-78z m-400-230q-10-3-19-1t-20 10q-35 45-58 99t-28 114q9 9 22 12t32-4q20-7 43-39 21-33 34-72t15-75q1-34-21-44v0z m440-122q-2-2-4-3t-3-3q-34-11-69-18t-73-6q-42 0-82 8t-77 23q-42 29-33 56t30 63q21 37 89 35l68-1 69 1t88-35q22-37 31-64t-34-56v0z m205 164q-14-18-34-34t-38-8q-20 10-20 44 1 36 14 75t36 72q21 32 42 39 23 8 38 2t23-20q-6-47-22-90t-39-80v0z" horiz-adv-x="1000" />

<glyph glyph-name="uniE642" unicode="&#xe857;" d="M846 735l-461-462-231 231-154-154 385-385 615 616z" horiz-adv-x="1000" />

<glyph glyph-name="uniE643" unicode="&#xe858;" d="M716 224h22q0 16-1 30t-4 28l-22-4-2 10 22 4q-2 15-7 30t-10 30l-21-8-3 9 20 9q-6 14-13 29t-16 27l-19-12-6 9 19 12q-9 13-19 26t-22 24l-16-16-7 7 16 16q-11 10-21 19t-24 18l-12-19-8 6 12 19q-12 9-27 16t-27 14l-9-20-10 3 9 21q-15 6-30 11t-32 8l-4-22-10 2 5 22q-16 3-32 5t-33 1v-22h-10v22q-14 0-29-1t-28-4l4-22-10-2-4 22q-16-2-31-7t-30-10l9-21-10-3-7 20q-16-6-30-13t-28-16l13-20-9-5-12 19q-14-9-26-19t-25-22l17-16-8-8-15 17q-10-11-20-22t-18-23l20-13-6-7-19 12-16-27t-15-27l22-9-4-10-22 9q-5-15-10-30t-8-32l22-4-3-10-21 5q-3-16-5-32t-2-33h23v-10h-23q0-14 2-29t3-28l22 4 2-10-22-4q3-16 8-31t9-30l22 9 4-10-22-8q6-15 14-29t17-28l18 13 6-9-19-13q9-13 20-25t21-25l16 17 7-8-16-16q10-10 21-19t23-18l13 19 9-6-13-19q13-8 26-16t29-14l9 21 9-4-9-21q15-6 30-10t31-8l5 21 10-2-5-22q16-3 32-5t32-1v22h11v-22q15 0 29 1t28 4l-4 22 10 2 4-22q16 3 31 7t29 10l-8 21 9 4 9-21q14 6 29 14t27 17l-12 18 9 5 12-19q13 10 26 20t24 21l-16 16 7 8 16-16q11 10 19 21t18 23l-19 13 6 8 19-12q9 13 16 26t14 29l-20 9 3 8 21-8q6 14 11 30t9 31l-23 5 2 10 22-5q3 15 5 32t1 32h-22v10 0z m-347-285q-57 0-109 22-51 22-89 60t-60 89q-22 52-22 109t22 110q22 50 60 88t89 60q52 22 109 22t110-22q50-21 88-60t60-88q22-52 22-110t-22-109q-21-51-60-89t-88-60q-52-22-110-22v0z" horiz-adv-x="1000" />

<glyph glyph-name="uniE644" unicode="&#xe859;" d="M883 187h41 39q15 0 24-7t13-25q-7 0-12-1t-11 0h-96-96-95t-96-1q-13 0-19 4t-9 17q-8 44-44 72t-80 28q-44 1-80-27t-46-74q-1-11-7-16t-18-4q-42 1-84 0t-84 1q-54 0-88 34t-34 89q-1 52-1 103t1 104q0 68 46 115t115 48q69 0 140 1h139 139q70-1 140-1t115-47 48-118q1-67 0-133t0-134v-13-15 0z m-599 233q31 0 61 0t60 0q23 0 32 10t10 32v21 21q-1 21-10 31t-30 9h-120-121q-20 0-30-10t-10-30v-21-21q0-22 10-32t32-10q29-1 59 0t57 0v0z m406 0q14 0 29 0t28 0q16 1 25 10t9 24q1 14 1 28t-1 27q0 17-8 26t-25 8q-28 1-58 1h-57q-17-1-26-10t-8-26q-1-12-1-25t1-26q0-18 9-27t29-10h26 27v0z m-248-368q-39 0-66 27t-27 66q0 38 27 65t65 28 66-27 27-65q1-38-26-66t-66-28v0z m39 91q1 17-10 29t-29 12-28-11-13-27q-1-17 11-29t28-13q16 0 29 12t12 27v0z" horiz-adv-x="1000" />

<glyph glyph-name="uniE645" unicode="&#xe85a;" d="M48 630v3 2q2 5 3 9t3 9q7 12 17 18t25 6h85 85 3 4v4 2 36 35q0 40 28 68t67 27h136 137q6 0 11 0t11-2q33-8 53-33t20-60v-35-36-3-3h4 3 80 80 7t7-1q17-3 26-16t9-31q-2-17-14-28t-30-12q-11-1-24 0t-25 0h-2-3v-4-4-156-155-156-157-4-4q-1-38-28-65t-65-27h-131-129-131-130q-15 0-30 5t-26 14q-19 15-28 34t-8 43v158 157 156 157 4 4h-4-3q-12 0-24 0t-24 0q-16 0-28 10t-15 24q-1 2-1 4t-1 3v0z m743-42h-145-146-145-146v-2-3-157-157-158-159q0-14 9-23t24-10h129 129 129 129q3 0 6 1t5 1q10 3 16 12t6 21v158 157 157 156 3 3 0z m-118 89q1 1 1 2v1 37 37q-1 15-10 24t-23 9h-137-136q-15 0-24-10t-9-25v-35-35-2-3h85 84 85 84v0z m32-397v-103-103q0-12-6-20t-16-12q-14-3-26 4t-13 22v3 4 102 103 102 104q0 11 4 18t14 12q15 7 28-1t15-24v-4-3-102-102 0z m-401 0v103 104q0 11 5 18t15 12q14 5 27-2t14-21v-4-4q1-52 1-104v-102-103-102q0-15-9-24t-22-10q-13 0-21 9t-10 20v3 4 101 102 0z m231 3v-103-103q0-12-5-20t-15-12q-14-5-27 3t-14 23v3 4 102 102 103 103q0 13 7 22t19 11 23-6 12-21v-4-4-102-101 0z" horiz-adv-x="1000" />

<glyph glyph-name="uniE646" unicode="&#xe85b;" d="M80 851v-959h475v146l-6 6q-13 17-20 37t-7 42q0 24 9 47t28 40q17 19 40 28t49 10q51 0 88-37t37-88q0-22-7-42t-20-37l-6-6v-146h133v959h-793v0z m744-910h-35v80q17 22 25 48t7 54q0 71-50 122t-123 51q-36 0-67-13t-57-37q-25-26-38-58t-13-65q0-28 8-54t24-48v-80h-376v861h695v-861 0z m-66 182q0-46-32-79t-78-33-79 33-32 79q0 44 32 77t79 33 78-33 32-77z m-188-100v-174l78 51 77-51v174q-15-16-35-25t-42-8q-24 0-43 8t-35 25z m-277 673h478v-58h-478v58z m0-117h478v-58h-478v58z m0-118h478v-58h-478v58z m-115 247h82v-83h-82v83 0z m0-118h82v-82h-82v82 0z m0-117h82v-82h-82v82 0z" horiz-adv-x="1000" />

<glyph glyph-name="uniE647" unicode="&#xe85c;" d="M970 357h30q0 20-2 39t-5 39l-30-6-2 14 29 6q-4 20-9 41t-14 40l-28-11-5 13 28 10q-9 21-19 40t-22 38l-24-17-8 12 25 16q-13 18-26 35t-30 33l-21-22-10 10 22 21q-14 14-29 27t-31 23l-17-25-12 9 17 24q-17 12-36 22t-38 19l-12-28-12 6 11 28q-19 8-40 14t-43 11l-5-29-14 3 6 29q-22 4-43 7t-44 2v-30h-14v30q-19 0-39-2t-39-5l6-30-14-3-5 30q-21-4-42-9t-40-14l12-28-13-5-11 28q-21-9-40-19t-37-22l16-25-11-7-17 25q-18-13-35-26t-33-30l22-21-10-10-21 22q-14-14-27-29t-23-31l25-17-8-12-25 17q-12-17-22-36t-19-38l28-12-6-13-28 12q-8-20-14-41t-11-42l30-6-3-13-30 6q-4-22-7-43t-2-44h30v-14h-30q0-20 2-39t5-39l30 6 3-14-30-6q4-20 10-41t13-40l29 11 5-13-29-10q9-21 19-40t22-37l26 16 7-12-25-16q12-19 26-35t29-33l21 22 10-10-22-21q15-14 30-27t31-23l17 24 11-8-17-24q17-12 36-22t38-19l13 28 12-6-12-28q20-8 41-14t42-11l6 29 14-3-7-29q22-4 44-7t43-2v30h15v-30q19 0 39 2t38 5l-6 30 14 3 6-30q20 4 41 9t40 14l-11 28 13 5 10-28q21 9 40 19t38 22l-17 25 12 7 16-24q19 12 35 26t33 29l-22 21 10 10 21-22q14 14 27 29t23 32l-24 17 8 11 24-17q12 17 22 36t19 38l-27 12 5 13 28-12q8 20 14 41t11 42l-29 6 3 13 29-6q4 22 7 43t2 44h-30v14 0z m-470-386q-78 0-147 29-70 31-121 82t-82 121q-29 68-29 147 0 78 29 148 31 69 82 120t121 82q69 29 147 29t148-29q69-31 120-82t82-120 30-148q0-79-30-147-31-70-82-121t-120-82q-70-29-148-29z m0 717q-70 0-132-26t-107-73-72-107-27-132 27-132 72-107 107-72 132-27 132 27 107 72 73 107 26 132-26 132-73 107-107 73-132 26z m50-67q4 6 15 10t33-5q23-7 40-17t30-19q13-9 36-29t30-36q9-15 11-23t-3-13q-8-9-59-26t-61-17-22-2-26 9q-7 3-14 14t-8 32q-2 23-4 69t2 53v0z m43-270q-10-3-19 2t-12 16q-3 9 2 18t14 12 19-2 12-15-2-19-14-12v0z m-57-54q9 6 19 4t15-11q6-8 5-19t-10-16-20-4-16 11-4 19 11 16v0z m-36 167q11 0 18-7t7-18q0-10-7-17t-18-7-18 7-7 17q0 11 7 18t18 7z m-34-200q-6-8-16-9t-19 4q-8 6-10 16t5 19q7 8 17 10t18-5q9-7 10-17t-5-18v0z m-59 89q-9 3-14 12t-1 19q3 10 12 15t19 2 15-12 1-19q-3-10-12-15t-20-2z m-140 175q14 19 28 32t27 22q12 10 39 26t43 18q18 4 26 3t11-6q6-10 7-64t-2-63-5-22-16-22q-6-5-19-9t-33 2q-21 5-66 17t-50 18-5 17 15 31v0z m38-373q-7-3-18 0t-24 23q-15 20-24 37t-13 32q-6 14-14 44t-5 47 5 26 10 9q11 3 63-13t60-20 19-11 17-22q3-7 3-20t-12-32q-11-18-35-57t-32-43v0z m272-88q-23-7-42-9t-35-2-46 4-47 12q-15 8-21 13t-6 12q2 12 35 55t39 50q7 5 18 13t26 8q8 0 20-4t25-22q14-17 42-53t29-45q0-8-7-17t-30-15v0z m158 108q-12-12-20-16t-12-2q-12 6-42 50t-34 53q-4 8-8 21t0 27q3 8 11 18t29 17q20 8 64 23t51 13q7-2 14-10t5-34-5-43-10-34-18-42-25-41v0z" horiz-adv-x="1000" />

<glyph glyph-name="uniE648" unicode="&#xe85d;" d="M982 486q-10 42-28 80t-41 72-51 64q-28 29-60 52-3-2-7-2t-4 2q-2-1-2-2l-1-1q1-1 1-1t-1 1l0 1t-3 0l-2-3q-3 6-6 6t-7-4q-4 4-6 0t-4-5q-2 2-13 2t-13-3q-2 3-4 2t-6-2q19-31 10-41t-28-35q-1 2-14-5t-12-10q-42 17-34-22t14-58q-4-2-9-4t-6-3q-4 3-9 6t-4 9l-31-44t5-41q24 3 66-30t45-40q9 2 35-9t55-24 51-25l23-12q17-6-12-42t-20-48q1 11 15 1t16-12q10 7 23 14t22 18q3-6 0-21t6-14q10 1 21 4t18-2q10-6-3-33t-16-33q-9-13-43-62t-54-43q0-2-11-7t-13-7q-17 25-37-16t-20-50q-2 2-7 3t-5-4q-5 0-9 4t-5 7q-4-11-20-23t-30-10q0-10-17-21t-26-15q-6-5-17-23t-19-20q-44-19-22 1t17 61q-3 21 14 38t29 38q11 18 28 52t-8 54q6 4-4 20t-13 20q-8 11-6 25t0 15q3 2-10 20t-17 31q-3 11 1 34t13 28q28 18 16 42-12 25-39 47t-55 38q-30 17-35 17-17 0-26 2t-29 21q-27 25-43 58t-28 74q-11 41-14 34t-4-39q8-1 2-19t-17-21q-9 33-12 90t20 68q2-3 3-2t6 1q-3 12 1 19t12 14q4 4-3 17t-5 16q-9 7-5 12t10 9q-3-2-5 1t-1 5q-5-1-10-2t-9-2q-99-27-178-89-77-61-125-144t-62-182q-15-97 13-197 26-101 88-178 61-78 144-126t182-62q97-14 198 12 100 28 178 89 77 62 125 145t62 181q15 98-13 198v0z m-310 1l-8-2q-8-1-11 3t-1 8q3 2 4 2t0 4l5 2q2 0 4 1t2 0l3-2 1-3q2-5 2-4t1-5l-2-4v0z m27 13q-3 3-3 2t-4 1q-1 1-2 3t-1 2q-4 0-3 1t-3 0q-1 3-4 7t-4 3l-3-1-1 3-5-2-3 2q-1 2-2 2l-1 1q-1-1-1-1t1 1l1 0t0 2q-4 1-3 1t-3 1l-1 5q-4 2-6 4t-4 2q-2 3-6 6t-8 6q6 6 7 5t2 3q4 1 5 0t5 0l3 1 3-2 4-2 2-11q4-2 7-5t4-2l3 1 1-6q4 0 3-1t4-3q3-2 4-3t3-3q4 0 3-1t3 0l3-2q2-3 4-5t4-2l2-8q-4-2-5-3t-5-2v0z m36-9q-4-2-4-2t-1 3l-7-8q-6 14-4 12t2 7l5 1q2-3 3-2t5 2l3-2q0-3 0-4t0-4l-2-3v0z m40-6q-2-1-6-1h-7l-3 13 4 1t4-2l2 3 4-1 5-1q-4-3-2-4t-1-8v0z" horiz-adv-x="1000" />

<glyph glyph-name="uniE649" unicode="&#xe85e;" d="M941 197q16 10 28 30t19 39q7 19 10 33l2 14-41-18t-68-39q-4-3-7-6t-6-4q1 27-1 53t-9 51q11-4 26 2t29 30q9 14 12 33t2 37q0 17-3 29l-3 13-28-28t-42-55q-2-5-4-9t-3-7q-8 20-18 39t-20 34q-1 4-4 8t-5 7q8 1 15 8t11 25q4 21-6 44l-11 22-12-22t-15-42q-1-3-1-6v-6q-12 13-21 22t-16 15q5 7 3 17t-15 20q-15 12-38 12h-22l10-19t22-30q12-9 20-10t16 6q6-6 15-16t19-23q-3 1-6 1h-5q-20-1-41-13l-21-13 17-6t35-8q16 0 26 5t12 11q2-4 4-7t6-8q8-15 17-33t15-39q-3 2-7 4t-9 2q-28 10-65-1l-36-10q0 1 19-13t46-26q24-8 39-8t25 8q4-23 5-48t-1-51q-2 2-5 5t-6 5q-27 23-69 28l-43 5 4-6t11-16 16-22 20-23q20-18 35-26t28-4q-7-26-17-49t-22-47q-1 3-3 6t-2 7q-16 36-57 61l-42 25 1-8t4-21q2-11 6-28t10-33q6-17 13-29t13-20q4-5 9-8t10-5q-16-17-34-33t-36-27q0 3 1 6t0 6q1 22-8 46t-20 42q-12 20-22 33l-9 12-2-8t-5-21q-3-14-7-31t-6-37q-1-20-1-35t4-27q2-6 4-11t7-9q-13-6-26-10t-25-7q-25-6-47-8t-38-2q-17 0-38 2t-47 8q-13 3-25 7t-26 10q3 3 6 9t5 11q3 12 3 27t-1 35q-1 19-5 37t-7 31q-3 13-5 21l-3 8-9-12t-21-32q-11-19-20-43t-8-46v-6t1-6q-19 12-36 28t-33 32q4 2 9 5t9 8q7 8 13 20t13 29q6 17 10 33t6 28q2 13 3 21l2 8-42-25t-57-61q-2-3-3-7t-2-6q-13 23-23 47t-16 49q13-3 28 4t35 26q12 11 20 23t16 22 11 16l4 6-43-4t-69-29q-4-3-6-5l-5-5q-2 26-1 51t5 48q9-8 25-8t39 8q26 11 46 25l19 14-36 10t-66 1q-4-1-8-2t-7-4q7 21 15 39t17 33q3 4 5 8t5 7q3-7 12-11t26-4q19 0 35 7l17 6-21 13t-40 13h-7t-5-1q11 14 19 23t15 16q7-6 16-6t20 10q13 10 23 30l9 19h-22t-38-12q-14-11-16-20t4-17q-7-5-17-15t-20-22q0 3-1 6t0 6q-4 20-16 42l-11 22-11-22t-6-44q4-18 11-25t15-8q-2-3-4-7t-5-8q-11-15-21-34t-17-39q-1 3-3 7t-4 9q-15 27-42 55l-28 28-3-13t-2-29q-1-17 1-37t12-33q15-25 29-30t26-2q-6-24-8-51t-2-53q-3 2-6 4t-7 6q-27 22-68 39l-41 18 2-14t10-33q7-19 19-39t28-30q26-19 43-18t27 9q6-27 16-54t22-52q-3 1-7 2l-8 2q-39 8-89 7l-50-1 9-13t27-31q16-16 38-30t44-18q21-4 36-1t23 8q5 3 9 8t7 9q16-21 35-38t38-32q-4-1-7-1t-7-1q-43-10-94-35l-50-24 16-10t42-19q25-9 54-13t53 4q24 7 37 16t19 20q4 6 5 12t2 10q14-5 28-10t28-9q29-8 53-10t42-3 42 3 53 10q13 4 28 9t28 10q0-4 2-10t5-12q6-10 19-20t37-16q23-8 53-4t54 13q26 9 42 19l16 10-50 24t-94 35q-4 0-7 1t-7 0q19 15 38 33t35 38q3-5 7-9t9-8q9-6 24-8t35 1q22 3 44 18t38 30q18 17 27 31l9 13-50 1t-89-7l-8-2t-7-3q13 26 23 52t15 54q10-8 27-8t43 18v0z" horiz-adv-x="1000" />

<glyph glyph-name="uniE64A" unicode="&#xe85f;" d="M356 178l-192 193 101 101 92-93 378 374 101-101-480-474v0z m501 318l-143-146h107q0-74-28-139-27-65-76-113t-113-77q-66-28-140-28-73 0-139 28-64 28-113 77t-77 113q-28 65-28 139 0 65 21 129 20 63 67 114t121 82q76 32 184 32v72q-105 0-191-31t-147-86-94-135q-32-79-32-177 0-89 33-167 35-78 93-136t136-92q78-34 166-34 89 0 167 34 78 34 136 92t92 136q34 78 34 167h107l-143 146v0z" horiz-adv-x="1000" />

<glyph glyph-name="uniE64B" unicode="&#xe860;" d="M175 850h51l71-174 73 174h48l-99-227v-145h-46v145z m318-86q62 0 81-44t20-102q0-60-20-104t-81-44-80 44-19 104q0 58 20 102t79 44z m55-146q0 45-10 78t-46 34q-33 0-43-34t-10-78 10-79 43-34q35 0 46 34t10 79z m274-140h-42v33h-1q-8-19-28-30t-39-10q-56 0-65 32t-9 56v198h44v-192q0-17 6-37t35-20q17 0 36 13t19 44v192h44v-279 0z m-200-313q-20 0-27-21t-6-61q0-39 6-59t27-21 27 21 6 59q0 40-6 61t-27 21z m231 5q-19 0-26-16t-7-32v-10h65q-1 28-7 43t-25 15z m81 242h-868q-27-5-46-26t-20-47v-423q0-27 20-47t46-19h868q27 0 47 19t19 47v423q0 27-19 47t-47 26v0z m-671-179h-71v-272h-65v272h-71v54h207v-54z m207-272h-61v30h-1q-10-19-26-27t-35-9q-30 0-46 17t-17 53v181h63v-168q0-19 6-27t20-8q17 0 25 11t8 30v162h64v-245 0z m173-6q-19 0-32 8t-24 25h-1v-27h-60v326h63v-103h1q10 15 22 22t31 6q39 0 57-29t18-99-18-98-57-31v0z m301 120h-124v-20q0-21 7-39t24-18 24 12 10 34h55q0-43-22-66t-65-23q-69 0-82 43t-13 88q0 49 16 88t81 39q55 0 72-34t17-91v-13 0z" horiz-adv-x="1000" />

<glyph glyph-name="uniE64C" unicode="&#xe861;" d="M929-28l-296 296q37 46 59 104t22 121q0 74-27 139-29 65-77 113t-114 77-139 28q-74 0-139-28-65-29-113-77t-77-113q-28-65-28-139 0-74 28-139t77-114 113-76q65-28 139-28 64 0 122 22t103 59l296-296 51 51v0z m-858 521q0 59 23 111t61 91 91 61 111 23q59 0 111-23 53-22 91-61t61-91 23-111q0-59-23-111-22-52-61-91t-91-61q-52-23-111-23-59 0-111 23t-91 61-61 91q-23 52-23 111v0z" horiz-adv-x="1000" />

<glyph glyph-name="uniE64D" unicode="&#xe862;" d="M650 850h-579v-1000h786v793z m-7-94l121-120h-121v120z m-500-835v858h428v-215h215v-643h-643v0z m500 429h-357v71h357v-71z m0-143h-357v72h357v-72z m0-143h-357v72h357v-72z" horiz-adv-x="1000" />

<glyph glyph-name="uniE64E" unicode="&#xe863;" d="M1000 10l-556 555q16 57 1 116t-58 103q-45 45-104 59t-115-1l139-138-54-107-106-54-139 139q-16-57-1-115t59-104q44-44 103-58t115 0l556-555 160 160v0z" horiz-adv-x="1000" />

<glyph glyph-name="uniE64F" unicode="&#xe864;" d="M0-150h999v200h-999v-200z m0 929v-215h999v215h-999z m0-572h999v214h-999v-214z" horiz-adv-x="1000" />

<glyph glyph-name="uniE633" unicode="&#xe865;" d="M793 553l-106-106q38-37 57-87t20-100q0-54-21-101t-56-84-84-57q-48-22-103-22-54 0-102 21t-83 56-57 84q-22 49-22 103 0 42 14 81 13 40 36 73t56 56q33 25 71 36l-69-149 137-64 166 364-383 193-68-134 148-73q-57-23-104-62-46-39-79-88t-53-108q-18-57-18-122-1-86 31-161 31-75 88-131t131-89 160-32 160 32q75 33 132 90t89 131q32 75 32 160 0 40-7 79-8 39-23 76t-37 72q-23 33-53 63v0z" horiz-adv-x="1000" />

<glyph glyph-name="uniE632" unicode="&#xe866;" d="M500 636q-104 0-196-45-91-45-158-98t-107-98l-39-45 39-45q39-44 107-98t158-98q92-45 196-45 80 0 168 45 89 45 163 98t121 98l48 45-48 45q-48 44-121 98t-163 98q-88 45-168 45z m0-464q-73 0-125 53t-53 125 53 126 125 52 126-52 52-126-52-125-126-53v0z m0 282q-43 0-73-31t-30-73 30-73 73-30 73 30 31 73-31 73-73 31z" horiz-adv-x="1000" />

<glyph glyph-name="uniE631" unicode="&#xe867;" d="M974 632h-117v147h-71v71h-572v-71h-71v-147h-117q-10 0-18-8t-8-18v-368q0-12 8-20t18-11h188v-357h572v357h188q10 3 18 11t8 20v368q0 11-8 18t-18 8v0z m-688 147h428v-138h-428v138 0z m428-858h-428v333h428v-333z" horiz-adv-x="1000" />

<glyph glyph-name="uniE630" unicode="&#xe868;" d="M118 791l764-441-764-441v882z" horiz-adv-x="1000" />

<glyph glyph-name="uniE62F" unicode="&#xe869;" d="M143 781h214v-858h-214v858 0z m500 0h214v-858h-214v858z" horiz-adv-x="1000" />

<glyph glyph-name="uniE62E" unicode="&#xe86a;" d="M786 779h-72v-72h-71v-71h-72v-72h-357v-428h357v-72h72v-71h71v-72h72v858z" horiz-adv-x="1000" />

<glyph glyph-name="uniE62D" unicode="&#xe86b;" d="M216 636v-72h-71v-71h-72v286h285v-72h-71v-71h-71z m568 0h-71v71h-71v72h285v-286h-71v71h-72v72z m0-572v71h72v72h71v-286h-285v72h71v71h71z m-568 0h71v-71h71v-72h-285v286h72v-72h71v-71z" horiz-adv-x="1000" />

<glyph glyph-name="uniE62C" unicode="&#xe86c;" d="M1000 320l-1000-477v943l1000-466v0z" horiz-adv-x="1000" />

<glyph glyph-name="uniE62B" unicode="&#xe86d;" d="M714 529h-104q38 45 32 104t-53 96q-45 37-104 31t-95-53q-32-39-32-89t32-89h-104l-107-590h660l-125 590v0z m-214 17q-29 0-50 21t-21 51 21 50 50 21 50-21 21-50-21-51-50-21z" horiz-adv-x="1000" />

<glyph glyph-name="uniE62A" unicode="&#xe86e;" d="M611-73q-54 0-103 22-48 20-84 56t-57 84-20 103v494q0 34 24 59t60 25 59-25 25-59v-213q8 4 17 6t19 2q25 0 46-14t30-35q10 6 21 9t23 4q25 0 46-14t31-35q9 6 20 9t24 4q34 0 59-25t25-59v-133q0-55-20-103-22-48-58-84t-84-56q-48-22-103-22v0z m-180 795q-15 0-26-11t-10-25v-494q0-44 16-84 18-39 47-68t68-47q40-17 85-17t84 17q39 17 69 47t47 68q17 40 17 84v133q0 14-11 25t-26 11q-15 0-25-11t-10-25q0-10-7-17t-18-8-17 8-7 17v36q0 14-10 25t-26 11q-15 0-25-11t-11-25q0-10-7-17t-17-8-17 8-7 17v36q0 15-11 25t-25 11-26-11-10-25q0-10-7-17t-17-7q-10 0-17 7t-7 17v289q0 15-11 25t-25 11v0z m221 51l-29-30 30-31h-114v-52h111l-27-29 32-32 85 86z m-440-174l29 30-30 31h114v52h-111l27 29-32 32-85-86z" horiz-adv-x="1000" />

<glyph glyph-name="uniE629" unicode="&#xe86f;" d="M694-94v277h29q20 0 24-14l3-13v-112q0-42 21-62t62-21q42 0 63 21t21 62v306q0 42-56 84t-55 83v166h-56l-56 56v55q0 24-16 40t-39 16h-500q-23 0-39-16t-17-40v-888q0-21 18-38t38-18h500q21 0 38 18t17 38v0z m0 667h56v-84q0-41 56-83t55-83v-279q0-20-14-24l-14-3-14 3t-13 24v139q0 22-18 39t-38 17h-56v334 0z m-111-56h-389v222h389v-222z" horiz-adv-x="1000" />

<glyph glyph-name="uniE628" unicode="&#xe870;" d="M679 663q-52 0-89-37t-36-88 36-89 89-36v-250q0-26-19-44t-44-19h-62v-62h62q52 0 89 36t36 89v267q28 16 45 45t18 63q0 51-37 88t-88 37z m0-188q-27 0-45 19t-18 44 18 43 45 19q25 0 44-19t18-43-18-44-44-19z m62 375h-437q-78 0-133-55t-55-132v-438h125v-250q0-52 37-88t88-37h250v62h-250q-26 0-44 19t-18 44v63q77 0 132 55t55 132h-62q0-52-37-88t-88-37v188h-125v375q0 51 36 88t89 37h437q52 0 89-37t36-88v-813h63v813q0 78-55 132t-133 55z m-437-375h62v125h-62v-125z" horiz-adv-x="1000" />

<glyph glyph-name="uniE627" unicode="&#xe871;" d="M0 457l2-286 998 2v283z" horiz-adv-x="1000" />

<glyph glyph-name="uniE626" unicode="&#xe872;" d="M808 542q0 64-25 121-23 55-65 97t-98 66q-56 24-120 24t-120-24q-56-25-98-66t-65-97q-25-57-25-121 0-42 11-81t30-73v0l267-538 267 538v0q19 34 30 73t11 81v0z m-308-154q-63 0-108 46t-45 108 45 109 108 46 109-46 45-109-45-108-109-46v0z" horiz-adv-x="1000" />

<glyph glyph-name="uniE625" unicode="&#xe873;" d="M808 542q0 64-25 121-23 55-65 97t-98 66q-56 24-120 24t-120-24q-56-25-98-66t-65-97q-25-57-25-121 0-42 11-81t30-73v0l267-538 267 538v0q19 34 30 73t11 81v0z m-308-154q-63 0-108 46t-45 108 45 109 108 46 109-46 45-109-45-108-109-46z" horiz-adv-x="1000" />

<glyph glyph-name="uniE624" unicode="&#xe874;" d="M500 832q-100 0-187-38t-154-103-103-153-38-188 38-187 103-154 154-103 187-38 188 38 153 103 103 154 38 187-38 188-103 153-153 103-188 38v0z m268-696h-72v143h72v-143 0z m0 214h-268v-214h-71v214h-143v-214h-72v428h72v-143h143v143h71v-143h196v143h72v-214 0z" horiz-adv-x="1000" />

<glyph glyph-name="uniE623" unicode="&#xe875;" d="M306 633q0-37-26-63t-63-27-63 27-26 63 26 63 63 26 63-26 26-63z m476-476q-37 0-63-27t-26-63 26-63 63-26 64 26 26 63-26 63-64 27z m-484-81q0-37-26-64t-63-26-63 26-27 64 27 63 63 26 63-26 26-63z m566 565q0-36-26-62t-64-27-63 27-25 62q0 37 25 64t63 26 64-26 26-64z m-685-291q0-37-27-63t-63-26-63 26-26 63 26 63 63 26 63-26 27-63z m821 0q0-37-26-63t-64-26q-36 0-62 26t-27 63 27 63 62 26q37 0 64-26t26-63z m-423-411q0-36-26-63t-63-26-63 26-27 63q0 37 27 63t63 27 63-27 26-63z m0 821q0-36-26-62t-63-27-63 27-27 62q0 37 27 64t63 26 63-26 26-64z" horiz-adv-x="1000" />

<glyph glyph-name="uniE622" unicode="&#xe876;" d="M162 349l502 499 193-192-307-307 307-307-193-192z" horiz-adv-x="1000" />

<glyph glyph-name="uniE621" unicode="&#xe877;" d="M872 850h-744q-53 0-90-38t-38-90v-744q0-53 38-90t90-38h744q53 0 90 38t38 90v744q0 53-38 90t-90 38v0z m-188-156q0 18 13 32t32 13h113q18 0 32-13t13-32v-108q0-18-13-31t-32-14h-113q-19 0-32 14t-13 31v108z m-183-148q42 0 78-14 37-16 64-42t44-62q15-36 15-76t-15-75q-17-36-44-63t-64-42q-36-14-78-14t-78 14q-36 16-64 42t-43 63q-16 35-16 75t16 76q16 35 43 62t64 42q36 14 78 14v0z m386-542q0-16-12-28t-27-11h-697q-16 0-28 11t-12 28v423h92q-6-20-9-42t-4-44q0-62 25-117t66-96 99-64 121-24 121 24 99 64 66 96 25 117q0 23-3 44t-10 42h88v-423 0z" horiz-adv-x="1000" />

<glyph glyph-name="uniE620" unicode="&#xe878;" d="M500 850q-103 0-194-39-92-39-160-107t-107-160q-39-90-39-194t39-194q39-92 107-160t160-107q91-39 194-39t194 39q92 39 160 107t107 160q39 91 39 194t-39 194q-39 92-107 160t-160 107q-90 39-194 39z m50-722h-111v279h111v-279z m0 334h-111v112h111v-112z" horiz-adv-x="1000" />

<glyph glyph-name="uniE61F" unicode="&#xe879;" d="M500 850q-103 0-194-39-92-39-160-107t-107-160q-39-90-39-194t39-194q39-92 107-160t160-107q91-39 194-39t194 39q92 39 160 107t107 160q39 91 39 194t-39 194q-39 92-107 160t-160 107q-90 39-194 39z m0-944q-92 0-173 35-81 34-141 95t-95 141q-35 81-35 173t35 173q34 81 95 142t141 94q81 35 173 35t173-35q81-34 142-94t94-142q35-81 35-173t-35-173q-34-81-94-141t-142-95q-81-35-173-35z m71 659q0 29-20 50t-50 21h-2q-29 0-50-21t-20-50v-1q0-29 20-50t50-21h2q29 0 50 21t20 49v2z m-142-144h142v-285h-142v285 0z" horiz-adv-x="1000" />

<glyph glyph-name="uniE61E" unicode="&#xe87a;" d="M0 850l491-491 491 491h-982z" horiz-adv-x="1000" />

<glyph glyph-name="uniE61D" unicode="&#xe87b;" d="M71 779h858v-858h-858v858 0z" horiz-adv-x="1000" />

<glyph glyph-name="uniE61C" unicode="&#xe87c;" d="M71 421h358v358h-358v-358 0z m500 358v-358h358v358h-358z m-500-858h358v358h-358v-358 0z m500 0h358v358h-358v-358z" horiz-adv-x="1000" />

<glyph glyph-name="uniE61B" unicode="&#xe87d;" d="M0 175h252l-213-220 64-64 212 220v-261l84 88v325h-314l-85-88v0z m748 350l213 220-63 64-213-220 1 261-85-88v-325h314l85 88h-252v0z" horiz-adv-x="1000" />

<glyph glyph-name="uniE61A" unicode="&#xe87e;" d="M806 683h-56l-56 56v55q0 24-16 40t-39 16h-500q-23 0-39-16t-17-40v-888q0-21 18-38t38-18h500q21 0 38 18t17 38v277h29q20 0 24-14l3-13v-112q0-42 21-62t62-21q42 0 63 21t21 62v306q0 42-56 84t-55 83v166 0z m-223-166h-389v222h389v-222z m278-194v-279q0-20-14-24l-14-3-14 3t-13 24v139q0 22-18 39t-38 17h-56v334h56v-84q0-41 56-83t55-83v0z" horiz-adv-x="1000" />

<glyph glyph-name="uniE619" unicode="&#xe87f;" d="M500 819l165-295 335-64-233-245 42-334-309 143-309-143 42 334-233 245 335 64z" horiz-adv-x="1000" />

<glyph glyph-name="uniE618" unicode="&#xe880;" d="M577-150v456h153l22 178h-175v113q0 39 16 63t72 24h93v159q-12 1-50 4t-86 3q-51 0-93-16-42-14-71-44t-47-74-16-101v-131h-153v-178h153v-456h182z" horiz-adv-x="1000" />

<glyph glyph-name="uniE600" unicode="&#xe881;" d="M750 368q48 0 91 18 42 19 73 50t50 73q18 43 18 91t-18 91q-19 42-50 73t-73 50q-43 18-91 18t-91-18q-42-19-73-50t-50-73q-18-43-18-91t18-91q19-42 50-73t73-50q43-18 91-18z m-143 268h107v107h72v-107h107v-72h-107v-107h-72v107h-107v72 0z m304-482l-179 35-163 131q-10 8-22 11t-24 0q-1 0-2 1t-3 0h-232q-2 0-3 0t-4-1q-10 1-22-1t-21-10l-143-111-4-2q-29 0-50-21t-21-50v-143q0-30 21-51t50-21h36v7 11q0 45 31 76t76 31q44 0 76-31t31-76v-11-7h286v8 10q0 41 26 74t77 33h2 2q54 0 81-33t26-74v-10-8h72q29 0 50 21t21 51v89q0 30-21 51t-50 21v0z m-679-143q-30 0-50-21t-21-51q0-4 1-8t1-10q6-22 25-38t44-15q25 0 44 15t25 38q1 5 2 10t1 8q0 30-21 51t-51 21v0z m500 0h-1t-2-1q-30-1-50-23t-18-51q0-4 1-7t1-8q6-23 25-38t44-15h2 1q25 1 42 17t24 36q2 5 2 10t1 12q-2 28-23 48t-49 20v0z" horiz-adv-x="1000" />

<glyph glyph-name="uniE601" unicode="&#xe882;" d="M1000 350q0-103-39-194-39-92-107-160t-160-107q-90-39-194-39t-194 39q-92 39-160 107t-107 160q-39 91-39 194t39 194q39 92 107 160t160 107q91 39 194 39t194-39q92-39 160-107t107-160q39-90 39-194z m-289 36l-63 64-151-151-152 153-63-64 215-216z" horiz-adv-x="1000" />

<glyph glyph-name="uniE602" unicode="&#xe883;" d="M500-150q-103 0-194 39-91 40-159 108t-108 159q-39 91-39 194t39 194q40 91 108 159t159 108q91 39 194 39t194-39q91-40 159-108t108-159q39-90 39-194t-39-194q-40-91-108-159t-159-108q-90-39-194-39z m0 929q-89 0-167-34-78-34-136-92t-91-136q-35-78-35-167t35-167q33-78 91-136t136-92q78-34 167-34t167 34q78 34 136 92t92 136q34 78 34 167t-34 167q-34 78-92 136t-136 92q-78 34-167 34v0z m-143-143v-72h72v-143h-72v-71h72v-214h-72v-72h143v572h-143z m214-1h72v-71h-72v71z m0-214h72v-71h-72v71z m0-285h72v-72h-72v72z" horiz-adv-x="1000" />

<glyph glyph-name="uniE603" unicode="&#xe884;" d="M0 850v-1000h1000v1000h-1000z m541-662l-108-108-272 270 109 108 163-163 325 326 108-109z" horiz-adv-x="1000" />

<glyph glyph-name="uniE604" unicode="&#xe885;" d="M981 488h-50v52q0 7-6 12t-12 5h-893q-7 0-12-5t-5-12v-379q0-8 5-13t12-5h893q7 0 12 5t6 13v51h50q6 0 11 5t5 12v241q0 8-5 13t-11 5v0z m-474-289h-451v302h451v-302z" horiz-adv-x="1000" />

<glyph glyph-name="uniE605" unicode="&#xe886;" d="M349 710h-62v46h-160v-46h-59q-28 0-48-20t-20-48v-610q0-29 20-49t48-21h281q28 0 48 21t20 49v610q0 28-20 48t-48 20v0z m22-678q0-10-7-17t-15-7h-281q-8 0-15 7t-7 17v610q0 9 7 16t15 7h281q9 0 16-7t6-16v-610 0z m-24 4h-277v100h277v-100z m0 125h-277v100h277v-100z m0 125h-277v100h277v-100z m0 125h-277v100h277v-100z m382-230q-49 0-93 9-44 8-79 23t-59 35q-24 20-34 43-3-6-4-13t-2-15q0-29 22-55 20-25 57-44t86-30q50-11 106-11 56 0 105 11 50 11 86 30t59 44 21 55q0 8-1 15t-5 13q-10-23-34-43-24-20-60-35t-79-23q-44-9-92-9v0z m0-88q-49 0-93 9-44 8-79 23t-59 35q-24 20-34 44-3-7-4-15t-2-14q0-29 22-54 20-26 57-45t86-30q50-10 106-10 56 0 105 10 50 11 86 30t59 45 21 54q0 7-1 14t-5 15q-10-24-34-44-24-20-60-35t-79-23q-44-9-92-9v0z m0-91q-49 0-93 8-44 9-79 24t-59 35q-24 20-34 44-3-7-4-14t-2-16q0-28 22-53 20-26 57-45t86-31q50-10 106-10 56 0 105 11 50 11 86 30t59 45 21 53q0 8-1 16t-5 14q-10-25-34-44-24-21-60-35t-79-24q-44-8-92-8v0z m271 351q0-28-21-54t-59-44-86-30q-49-12-105-12-56 0-106 12-49 11-86 30t-58 44q-21 26-21 54 0 29 21 55 21 25 58 44t86 30q50 11 106 11 56 0 105-11 50-11 86-30t59-44 21-55z" horiz-adv-x="1000" />

<glyph glyph-name="uniE606" unicode="&#xe887;" d="M866-126q24-22 56-22t55 22q22 24 22 56t-22 55l-371 371-111-110 371-372v0z m34 77q10 9 23 9t23-9q10-9 10-23t-10-23q-9-9-23-9t-23 9q-9 9-9 23t9 23z m-502 612q24 56 13 117t-56 107q-46 45-107 56t-118-12l154-154-110-110-153 154q-24-56-13-117t57-107q44-45 106-57t117 13l106-106 110 110-106 106v0z m598 222l-62 63-157-93-10-74 6-5-499-498-31 32-219-219q-23-24-23-58t23-57q6-6 13-10t13-7h1l1-1q2-1 5-2t6-1q1 0 2-1t1 0q2-1 4-1h4t4-1 4 0 4 0 4 1h4t4 1q1 0 2 0t2 1q9 3 19 8t19 13l218 219-31 31 497 498 6-5 74 10 92 156v0z" horiz-adv-x="1000" />

<glyph glyph-name="uniE607" unicode="&#xe888;" d="M559 702h441l-196-459-32 39q-33 38-75 102t-82 148q-41 82-56 170z m191-579q-116 125-183 231-65 106-97 184t-39 121l-7 43h-145l15-73q15-73 58-180t123-229q78-122 206-221z m-450-124q-106 115-166 240-60 124-90 227t-37 169l-7 67h140l8-58t35-145 72-188q46-101 121-188z" horiz-adv-x="1000" />

<glyph glyph-name="uniE608" unicode="&#xe889;" d="M500 282q-89 0-169 15t-144 43-108 64q-45 36-62 80-5-13-8-26t-3-27q0-53 39-99 39-46 106-81t157-54q90-21 192-21t192 21q90 19 157 54t106 80q38 47 38 100 0 14-2 27t-8 26q-18-44-62-80-44-37-108-64t-144-43-169-15z m0-160q-89 0-169 15t-144 43-108 64q-45 36-62 80-5-13-8-26t-3-27q0-53 39-100 39-46 106-80t157-54q90-21 192-21t192 21q90 19 157 54t106 80q38 47 38 100 0 14-2 27t-8 26q-18-43-62-80t-108-64-144-43-169-15z m0-167q-89 0-169 16-80 15-144 42t-108 64q-45 37-62 80-5-13-8-26t-3-26q0-53 39-100 39-46 106-80t157-56q90-19 192-19t192 20q90 20 157 55t106 80q38 47 38 100 0 13-2 26t-8 26q-18-43-62-80t-108-64-144-42q-80-16-169-16v0z m0 895q-102 0-192-19-90-21-157-56t-106-80q-39-47-39-99 0-53 39-99 39-46 106-81t157-54q90-21 192-21t192 21q90 19 157 54t106 81q38 46 38 99 0 52-38 99-39 46-106 80t-157 56q-89 19-192 19z m149-290l-323-151 149 159-124 63 323 152-149-160 124-63v0z" horiz-adv-x="1000" />

<glyph glyph-name="uniE609" unicode="&#xe88a;" d="M999 71l-280 277 280 282-218 218-282-277-277 279-222-222 279-276-279-281 222-222 278 278 279-277z" horiz-adv-x="1000" />

<glyph glyph-name="uniE60A" unicode="&#xe88b;" d="M0 202q0-25 67-42t162-17 161 17 67 42v-117q0-24-67-41t-161-17-162 17-67 41v117z m0-293q0-25 67-42t162-17 161 17 67 42v116q0-25-67-42t-161-17-162 17-67 42v-116z m543 706q0-24 67-41t162-17 161 17 67 41v58q0 24-67 41t-161 17-162-17-67-41v-58 0z m0-177q0-24 67-42t162-17 161 17 67 42v116q0-24-67-41t-161-17-162 17-67 41v-116 0z m0-178q0-23 67-40t162-17 161 17 67 40v116q0-23-67-40t-161-17-162 17-67 40v-116z m0-175q0-24 67-41t162-17 161 17 67 41v117q0-25-67-42t-161-17-162 17-67 42v-117z m0-176q0-25 67-42t162-17 161 17 67 42v116q0-25-67-42t-161-17-162 17-67 42v-116z m-543 353q0-23 67-40t162-17 161 17 67 40v59q0 23-67 40t-161 17-162-17-67-40v-59z" horiz-adv-x="1000" />

<glyph glyph-name="uniE60B" unicode="&#xe88c;" d="M560 700h437v-60h-437v60z m0-140h437v-60h-437v60z m0-304h437v-59h-437v59 0z m0-136h437v-60h-437v60z m-520-143h363v363h-363v-363 0z m73 290h220v-224h-220v224 0z m333 510l-40-40v50h-366v-364h363v207l97 93-54 54v0z m-333-283v219h220v-47l-53-52-80 83-53-57 136-137 50 54v-63h-220v0z" horiz-adv-x="1000" />

<glyph glyph-name="uniE60C" unicode="&#xe88d;" d="M210 843q-11-1-12-9t-2-24q1-15-3-28t-17-21q-3-1-6-2t-4-3h0-1q-13-7-26-3t-27 11q-12 9-20 12t-15-5-6-8-11-14v0-1l-11-13-7-8q-7-9-2-16t16-17q11-11 18-23t2-26q-1-3-2-5t-1-6l0 0-1-1q-4-14-16-21t-27-10q-15-3-23-6t-6-15 1-10 2-17v0-1q2-17 2-17t1-10 9-12 24-2q16 1 28-3t21-17q2-3 3-6t3-4v0-1q7-13 3-26t-12-27-12-20 5-15q9-7 9-6t14-12v0 0 0 0l13-10 9-7q8-7 15-2t17 16q11 11 23 18t27 2q2-1 5-1t5-2q1 0 1 0v-1q15-4 21-16t10-27 6-22 15-7l10 1 17 2h1v0 0 0l18 2 10 1t12 9 1 24q0 16 4 29t17 21v0q2 1 5 2t4 3h1v0q14 6 27 3t26-12q13-8 20-11t15 5l7 8 11 13v0 0 0 0q11 15 11 15t6 8 2 16-15 17q-11 10-18 22t-3 27q1 3 2 5t2 6v0 1q5 13 17 20t26 10q16 4 23 7t7 13l-2 11-2 18v0 0 0 0l-2 17-1 11t-9 12-24 2q-15-1-28 3t-21 17v0 0q-1 3-2 5t-3 5v0 0q-7 14-3 27t11 26q9 12 12 20t-5 15-8 7-13 11q-1 0-1 0v0 0 0l-14 11-8 7q-9 7-15 2t-18-17q-11-10-22-17t-27-2q-3 1-5 1t-6 2v0h-1q-14 5-21 16t-10 28q-3 14-6 22t-14 7-11-1-18-2q-17-2-17-2t-10-2v0z m156-249q5-41-21-74t-67-37q-42-4-74 22t-37 67q-4 41 22 73t67 37q41 5 73-21t37-67z m182-123q-12-5-11-15t6-27q5-17 4-34t-14-28l-4-5t-6-4v-1 0q-13-12-29-12t-34 6-27 7-15-10q-6-12-6-11t-8-19v0l-1-1-7-19-5-11q-6-12 2-18t23-16 26-21 12-29q-1-3-1-7v-6-1 0q-1-19-13-30t-27-19q-16-8-25-14t-3-18q5-13 5-12t7-19v-1 0q7-20 7-19t5-12q4-12 14-11t28 6 34 3 29-12q2-3 4-6t5-5v0 0q12-14 12-30t-7-34q-5-16-6-26t9-16q12-5 12-5t19-8h1v0 0 0q19-9 19-9t11-5q12-6 18 2t16 23 21 27 30 12q3 0 6-1t6 0v0h1q18-1 30-13t19-27 14-25 19-4l11 5 20 7v0 1 0 0l19 7 12 5q12 4 11 14t-5 28q-6 17-5 33t14 29v0q3 2 5 5l4 4h1 0q13 13 30 13t33-7q17-6 27-7t16 11q5 11 5 11t9 19v0 0 0 0q8 20 8 19t5 11-2 19-24 15q-16 9-27 21t-10 30v7 6 0 1q1 18 12 29t29 20 24 14 3 18l-4 12-8 19v0 0 0 0q-7 20-7 20t-4 11q-5 13-15 12t-27-6-35-4-28 13h0-1q-2 3-4 6t-4 4q-1 0-1 0v1q-11 13-11 29t6 33q5 18 7 28t-10 15l-12 5-19 9v0h-1v0l-18 9-12 5t-18-3-15-23q-9-16-21-27t-30-11h-6-7q-1 0-1 1v0q-18 1-29 12t-19 28q-9 17-15 25t-18 3q-12-4-12-4t-20-8q-19-7-19-7t-12-5v0z m255-240q17-46-3-91t-67-62q-45-18-90 2t-63 66 3 91 66 62 91-2 63-66v0z" horiz-adv-x="1000" />

<glyph glyph-name="uniE60D" unicode="&#xe88e;" d="M500 207l-500 321v-439q0-39 27-66t67-27h812q39 0 67 27t27 66v439l-500-321v0z m-406 497q-36 0-63-24t-30-59q-1-2-1-5v-5l500-321 500 321v5t-1 6q-4 34-30 58t-63 24h-812v0z" horiz-adv-x="1000" />

<glyph glyph-name="uniE60E" unicode="&#xe88f;" d="M961 372l-207 207v196q0 31-22 53t-53 22h-364q-31 0-53-22t-22-53v-202l-201-201q-8-8-8-19t8-19 19-7 17 7l165 165v-574q0-31 22-53t53-22h364q31 0 53 22t22 53v580l171-171q7-7 17-7t19 7 8 19-8 19v0z m-661 128l59-75v-268l-59-70v413z m5-504l95 121h199l98-121h-392z m392 91l-59 70v268l59 75v-413z m-92 378h-205l-79 116-16 16h392l-16-18z" horiz-adv-x="1000" />

<glyph glyph-name="uniE60F" unicode="&#xe890;" d="M698 646l-101-102 95-105h-377l85 96-110 111-290-290 302-302 101 102-92 105h381l-92-96 110-111 290 290z" horiz-adv-x="1000" />

<glyph glyph-name="uniE610" unicode="&#xe891;" d="M501-33l499 502-192 194-307-308-307 308-192-194z" horiz-adv-x="1000" />

<glyph glyph-name="uniE611" unicode="&#xe892;" d="M833 850h-466l-267-267v-667q0-27 19-47t48-19h666q28 0 48 19t19 47v868q0 27-19 47t-48 19v0z m-33-867q0-14-10-24t-23-9h-534q-13 0-23 9t-10 24v567h200v200h367q13 0 23-9t10-25v-733 0z m-248 261v224h-104v-220l-54 55-64-63 168-168 172 172-59 59z" horiz-adv-x="1000" />

<glyph glyph-name="uniE612" unicode="&#xe893;" d="M999 694q-6-11-12-22t-12-21q-8-14-20-17t-26 4q-46 27-92 54l-92 53q-14 8-18 20t5 26q4 9 9 18t10 17q8 11 20 15t24-5q47-26 94-53t93-54q5-4 9-9t8-11v-7-8 0z m-998-759q4 6 9 8t12 3q59-1 118-1h118q12 0 15-4t5-16v-13-11q-1-9-5-13t-11-5h-4-3-115-116q-6 0-12 2t-11 8v21 21 0z m328 199q2 5 4 11t5 12q25 45 52 90 25 44 51 89t52 89q26 45 52 90 26 47 53 93t54 94q3 4 7 8t7 8q8 5 16 5t16-5l116-66 115-67q12-6 15-19t-4-26q-20-32-39-64t-37-65q-30-52-60-105-31-52-60-104t-60-104q-31-53-61-104-5-9-12-16t-16-9q-52-20-103-41t-102-41q-10-5-18-2t-10 17q-6 46-12 92t-13 91l-4 24t-4 25v0z m382 484q-9-1-16-6t-11-13q-9-15-17-29t-18-30q-25-42-49-85t-50-86-49-86q-25-43-50-85-9-15-5-27t18-21q22-13 45-26t47-27q12-7 25-4t19 16q29 51 58 100 30 51 58 101t58 102 59 100q8 14 4 26t-17 20q-23 14-46 27t-45 26q-4 3-9 4t-9 3v0z" horiz-adv-x="1000" />

<glyph glyph-name="uniE613" unicode="&#xe894;" d="M844 546h-844v304h844l111-151z m-250-347h-594v302h594l111-151z m-196-349h-398v304h398l111-153z" horiz-adv-x="1000" />

<glyph glyph-name="uniE614" unicode="&#xe895;" d="M216 348q0-45-32-77t-77-31-77 31-32 77q0 46 32 78t77 31 77-31 32-78z m395 0q0-45-31-77t-77-31-77 31-31 77q0 46 31 78t77 31 77-31 31-78z m389 0q0-45-32-77t-76-31-77 31-32 77q0 46 32 78t77 31 76-31 32-78z" horiz-adv-x="1000" />

<glyph glyph-name="uniE615" unicode="&#xe896;" d="M954 429h-84v-91h-60l-125 205h-190v73h136v60h-354v-60h137v-73h-167l-89-94h-55v-111h-46v133h-57v-353h57v122h46v-76h56l168-187h492v104h52v-104h83l23 33t23 194v35t-4 77-14 78-28 35v0z m-355-139l-205-275 91 214h-84l205 273-89-212h82v0z" horiz-adv-x="1000" />

<glyph glyph-name="uniE616" unicode="&#xe897;" d="M991 362l-269 115 95 188 1 3t-1 5-5 1l-4-1-184-99-117 267-3 5t-6 4-6-4l-3-5-115-267-182 99-3 1t-6-1-1-5l1-3 95-188-269-115-5-3t-4-6q0-5 4-7l5-3 269-113-101-183-1-3t1-5q2-3 5-2l4 2 188 94 117-268 3-5t7-4q4 0 6 4l3 5 116 268 188-94 3-2t6 2q2 1 1 5l-1 3-101 183 269 113 5 3t4 7q0 4-4 6l-5 3v0z m-491-119q-46 0-78 31t-32 78 32 78 78 31 78-31 32-78-32-78-78-31z" horiz-adv-x="1000" />

<glyph glyph-name="uniE617" unicode="&#xe898;" d="M695 118v-83h-556v555h84v140h-223v-834h834v222h-139z m-13 686l-108-107 111-111h-412v-187l402-1-98-101 117-117 306 306z" horiz-adv-x="1000" />

<glyph glyph-name="uniE980" unicode="&#xe899;" d="M500 587l-357-294c0 0 0-1 0-2 0 0 0-1 0-1v-298c0-11 4-20 12-28 7-8 17-12 28-12h238v238h158v-238h239c10 0 20 4 28 12 7 8 11 17 11 28v298c0 1 0 2 0 3l-357 294z m500-240c0 6-3 10-7 13l-136 113v253c0 6-2 11-5 15-4 3-9 5-15 5h-119c-5 0-10-2-14-5-4-4-5-9-5-15v-121l-152 127c-13 11-29 16-47 16-18 0-34-5-47-16l-446-372c-4-3-6-7-7-13 0-6 1-11 4-15l39-46c3-3 8-6 13-6 5-1 10 1 15 4l429 358 429-358c4-3 8-4 13-4h2c6 0 10 3 13 6l39 46c3 5 4 9 4 15z" horiz-adv-x="1000" />

<glyph glyph-name="uniE900" unicode="&#xe900;" d="M883 110q0-28-20-48t-47-20-47 20-20 48 20 47 47 19 47-19 20-47z m110 120q-2 12-16 23l-15 12q-24 53-85 66l-62 14q-49 64-122 92l-72 29q-59 11-122 13t-111 0q-15-55-60-90t-105-36h-4-3q-10 0-20 2t-18 5q-36-67-34-130l2-64q2-40 25-48l23-9h4 10v1q0 44 31 75t76 30 74-30 31-75v-2 0q96-1 147-2t144-1v2 3q0 44 31 75t74 30 75-30 31-75v-4-3q12 1 22 3l11 3q31 11 38 26l7 15-7 80v0z m-612-120q0-28-20-48t-46-20q-29 0-48 20t-20 48 20 47 48 19q27 0 46-19t20-47z m-163 282h2 3q52 0 91 37t41 91q1 55-36 95t-91 42h-3-2q-54 0-93-37t-40-90q-1-24 6-44t18-38l-114-111 32-34 116 112q15-10 33-16t37-7v0z m-81 136q1 34 26 58t60 24h1 2q35-1 59-27t23-61q-1-35-26-59t-59-24h-2-2q-35 1-59 27t-23 62v0z" horiz-adv-x="1000" />

<glyph glyph-name="uniE901" unicode="&#xe901;" d="M500 671l100-185 14-29 36-7 207-35-143-151-22-21 8-36 29-207-193 85-29 15z m0 151l-164-293-336-65 235-243-43-335 308 143 308-143-43 335 235 243-336 65-164 293v0z" horiz-adv-x="1000" />

<glyph glyph-name="uniE902" unicode="&#xe902;" d="M500 671l100-185 14-29 36-7 207-35-143-151-22-21 8-36 29-207-193 85-29 15-28-15-193-85 29 207 6 36-21 21-143 151 207 35 36 7 14 29 86 185v0z m0 151l-164-293-336-65 235-243-43-335 308 143 308-143-43 335 235 243-336 65-164 293v0z" horiz-adv-x="1000" />

<glyph glyph-name="uniE903" unicode="&#xe903;" d="M679-150l271 222-271 214v-121h-436v142l-193 164v-492h629v-129z m78 543l193-164v492h-629v129l-271-222 271-213v121h436v-143z" horiz-adv-x="1000" />

<glyph glyph-name="uniE904" unicode="&#xe904;" d="M486 500q16 0 27 11t10 26q0 15-10 26t-27 11q-14 0-25-11t-11-26q2-15 12-26t24-11z m80-150q-12 0-22-9t-11-24 10-21 23-6q16 0 22 9t12 18q-5 14-14 24t-20 9z m-302 233q-16 0-27-9t-13-28q0-14 9-25t27-11q15 0 28 9t12 27q3 16-8 27t-28 10z m486-233q-10 0-18-8t-8-18q0-13 8-23t18-11q13 0 20 7t6 20q5 14-4 24t-22 9z m-750 500v-1000h1000v1000h-1000z m300-656q-7 0-15-1t-18-3q-20-10-42-25t-48-28q5 17 8 36t8 33q3 13 1 21t-14 17q-36 24-62 55-25 32-39 68t-15 74q-1 39 9 79 21 75 72 120t119 66q47 17 96 17 50 1 97-13t87-41q41-27 69-66 21-27 35-58t15-68q-59-3-113-22t-97-65q-42-43-63-94t-13-116q-16 5-36 8l-41 6v0z m566-131q-16-15-24-31t8-38q3-5 3-9t1-8q-18 7-37 17t-37 16q-17 2-37-4t-40-10q-57-4-111 11t-99 56q-41 39-59 87-18 47-14 94t31 89q27 43 75 74 43 27 94 37t101 2 94-31 72-62q28-36 42-75 12-40 10-78t-20-74q-19-35-53-63v0z" horiz-adv-x="1000" />

<glyph glyph-name="uniE905" unicode="&#xe905;" d="M0 850v-1000h1000v1000h-1000z m423-866q-64 0-125 16t-110 47-79 73q-29 43-29 93 0 55 32 116t91 118q39 39 79 66 41 28 78 43t66 15q30 0 48-18 14-14 17-40t-8-57q-4-14 8-12l12 3q62 27 113 27t71-27q9-15 9-37t-9-46q-5-13 0-15t13-6q35-10 68-37t32-76q-2-39-30-82-28-43-77-80t-118-61q-68-23-152-23v0z m353 443q-11-3-21 4t-12 19q-8 33-31 56t-56 31q-11 3-18 13t-4 20q2 12 12 19t21 4q50-10 85-46t45-84q5-14-2-24t-19-12v0z m141 29q0-12-9-21t-21-8-22 8-9 21q0 41-14 76-16 35-42 61t-62 42q-35 15-75 15-13 0-21 9t-8 21 8 22 21 8q53-2 99-21 47-21 81-54t54-80q20-46 20-99v0 0z m-523-86q-52-5-96-22-43-17-74-43t-48-57-13-65q4-33 27-60t57-46 81-27q45-9 95-4 52 6 96 23 44 17 75 42t47 57q16 32 12 66-3 33-24 60-23 28-58 46t-82 27q-46 8-95 3v0z m-7-250q-40-7-75 10t-42 53q-7 35 17 65t67 39q40 7 74-11t42-53q8-35-17-65t-66-38z" horiz-adv-x="1000" />

<glyph glyph-name="uniE906" unicode="&#xe906;" d="M663 477q-2 37-15 68t-35 58q-28 39-69 66-40 28-87 41t-97 13q-49 0-96-17-68-22-119-66t-72-120q-10-40-9-79 1-38 15-74t39-68q26-31 62-55 12-10 14-17t-1-21q-4-14-8-33t-8-36q25 12 48 28t42 25q9 3 18 3t15 1l41-6t36-8q-8 65 13 116t63 94q43 45 97 65t113 22v0z m-403 33q-18 0-27 11t-9 25q2 18 13 28t27 9q17 0 28-10t8-27q0-17-12-27t-28-9v0z m226 64q16 0 27-11t10-26q0-15-10-26t-27-11q-14 0-24 11t-12 26q0 15 11 26t25 11z m401-221q-29 39-72 62t-94 31-101-2-94-37q-48-31-75-74-26-42-31-89t14-94q18-48 59-87 45-40 99-56t111-11q21 3 40 10t37 4q18-5 37-16t37-17q0 5-1 8t-3 9q-15 22-8 38t24 31q34 28 53 63 18 36 20 74t-10 78q-14 39-42 75v0z m-321-63q-14 0-23 6t-10 21 11 24 22 9q11 0 20-9t14-24q-5-10-12-18t-22-9z m210 27q0-13-6-20t-20-7q-10 0-18 11t-8 23q0 9 8 18t18 8q13 0 22-9t4-24z" horiz-adv-x="1000" />

<glyph glyph-name="uniE907" unicode="&#xe907;" d="M656 537q34-8 56-31t31-56q3-12 12-19t21-4q13 2 19 12t2 24q-10 48-45 84t-85 46q-11 3-21-4t-12-19q-3-10 4-20t18-13v0z m44-194q-8 3-13 6t0 15q9 24 9 46t-9 37q-20 27-71 27t-113-27l-12-3t-8 12q10 31 8 57t-17 40q-18 18-48 18-29 0-66-15t-78-43q-40-27-79-66-59-58-91-118t-32-116q0-50 29-93 31-42 79-73t110-47 125-16q84 0 152 23 69 25 118 61t77 80q28 43 30 82 0 48-32 76t-68 37v0z m-277-297q-50-5-95 4-46 8-81 27t-57 46-27 60q-4 34 13 65t48 57 74 43q44 17 96 22 49 5 95-3 46-8 82-27t58-46q21-27 24-60 4-34-12-66-16-32-47-57t-75-42q-44-17-96-23v0z m240 664q-13 0-21-8t-8-22 8-21 21-9q40 0 75-15 35-15 62-42t42-61q14-35 14-76 0-12 9-21t22-8 21 8 9 21q0 53-20 99-20 46-54 80t-81 54q-46 19-99 21v0z m-276-590q-40-7-75 10t-42 53q-7 35 17 65t67 39q40 7 74-11t42-53q8-35-17-65t-66-38z" horiz-adv-x="1000" />

<glyph glyph-name="uniE908" unicode="&#xe908;" d="M503 484l-166-374q-10-20-24-31t-43-2q-28 9-27 31t4 32l46 116-109 228q-3 5-4 27t27 32q27 10 42 1t24-27l74-150 70 150q7 15 21 27t45 2q31-11 25-37l-5-25v0 0z m307-244q-12-10-32-11t-31 11q-6 5-65 54l-59 49v-80q0-17-12-27t-31-9q-20 0-32 9t-11 27v217q0 20 10 30t33 10 33-11 10-29v-73l110 103q8 8 28 13t39-13q25-22 11-44l-14-22-77-68 84-69q14-16 16-36t-10-31v0 0z" horiz-adv-x="1000" />

<glyph glyph-name="uniE909" unicode="&#xe909;" d="M500 850l-429-192v-543l429-265 422 272v543l-422 185v0z m364-692l-364-230-371 230v457l371 164 364-157v-464z m-371-58h22v-50h-22v50 0z m0-100h22v-50h-22v50 0z m0 286h22v-50h-22v50 0z m0-93h22v-50h-22v50 0z m-72 228l-44 25 10 18 44-23z m51-6l-15-15 36-22v-43h22v43l28 22-7 15-29-15z m-212 96l-44 24 10 18 44-23z m-78 43l-45 24 11 19 43-23z m148-85l-44 24 11 18 44-23z m288-10l11-18-44-25-11 19z m157 96l11-18-43-25-11 19z m77 42l10-18-44-25-10 19z m-153-88l11-18-43-26-11 19z" horiz-adv-x="1000" />

<glyph glyph-name="uniE90A" unicode="&#xe90a;" d="M574-3q0-30-22-51t-52-22-52 22-22 51q0 32 22 53t52 22 52-22 22-53z m-176 0q0 7 1 13t2 11h-123v88q0 14-10 26t-26 11h-74q-16 0-26-11t-11-26v-222q0-16 11-26t26-11h73q16 0 27 11t10 26v86h123q-1 6-2 12t-1 12v0z m434 149h-73q-16 0-27-11t-10-26v-86h-124q2-7 3-13t1-13q0-5-1-11l-2-12h123v-87q0-16 10-26t26-11h74q16 0 26 11t11 26v222q0 15-11 26t-26 11v0z m-258 557q0-32-21-53t-53-22q-30 0-52 22t-21 53q0 30 21 51t52 22q31 0 53-22t21-51z m-176 0q0 5 1 11l2 12h-123v87q0 16-10 26t-26 11h-74q-16 0-26-11t-11-26v-222q0-15 11-26t26-11h73q16 0 27 11t10 26v86h123q-1 7-2 13t-1 13v0z m434 147h-73q-16 0-27-11t-10-26v-86h-124q2-6 3-12t1-12q0-7-1-13t-2-11h123v-88q0-14 10-26t26-11h74q16 0 26 11t11 26v222q0 16-11 26t-26 11v0z m-355-753l11 2t13 1q6 0 12-1l11-2v507q-5-2-12-2t-12-1q-7 0-13 1t-10 2v-507 0z" horiz-adv-x="1000" />

<glyph glyph-name="uniE90B" unicode="&#xe90b;" d="M195 260q-26 0-46-19t-19-46 19-46 46-19 46 19 19 46-19 46-46 19v0z m760 75q-18 27-48 49t-112 41q-45 31-91 83t-204 57q-77 2-146 3-71 1-125 1t-89 1h-40q-11 0-28-10t-32-50q-10-30-16-68t-8-72-5-57l-1-23-1-12t-4-13-6-28 6-31l40-5t45-1q4 42 31 71t69 29q41 0 73-30t32-75q57-2 108-3 53-2 104-4t102-2q51-1 106-1v7 3q0 42 30 74t75 31 75-30 30-75v-8-7h37 19q6 8 15 33t-6 52q-4 19-12 37t-23 33v0z m-135-75q-26 0-46-19t-19-46 19-46 46-19 46 19 19 46-18 46-47 19v0z" horiz-adv-x="1000" />

<glyph glyph-name="uniE90C" unicode="&#xe90c;" d="M186 165l64 64-64 63h171v116h-165l58 56-71 72-179-179 186-192v0z m629 371l-65-65 65-63h-172v-116h165l-58-56 71-71 179 178-185 193v0z" horiz-adv-x="1000" />

<glyph glyph-name="uniE90D" unicode="&#xe90d;" d="M852 456l32 78q8 19 8 41t-8 41q-9 19-24 34t-35 24l-76 32-31 77q-18 41-59 58t-82 0l-76-32-77 32q-40 17-82-1t-58-56l-32-78-77-31q-41-16-58-58t0-82l31-77-32-77q-8-19-8-40t8-42q8-19 23-34t35-23l77-33 27-66-88-207 126 11 78-96 106 254 105-254 80 97 123-13-86 210 26 63 77 32q41 17 58 58t0 82l-31 76v0z m-112-47q11-26 0-52t-36-36l-49-20-19-48q-5-12-15-22t-21-15q-13-5-26-5t-26 6l-48 20-49-20q-25-11-51 0t-37 36l-19 49-48 20q-13 5-22 14t-14 22q-6 13-6 26t6 26l19 47-19 49q-11 26 0 52t36 36l49 20 19 48q11 25 37 36t51 0l48-20 49 20q25 10 51 0t37-36l19-49 48-20q13-5 22-14t15-22q5-13 5-26t-6-26l-19-48 19-48v0z m-92 60q0-61-43-105t-105-44-105 44-43 105 43 105 105 44 105-44 43-105z" horiz-adv-x="1000" />

<glyph glyph-name="uniE90E" unicode="&#xe90e;" d="M924 496q54-31 70-83t-9-112q-14-34-46-72t-76-75-95-69-106-55q-56-26-120-45-62-20-128-31t-131-10q-65 1-127 16-68 20-109 56t-46 81q-7 57 20 104 26 47 69 86t97 66q51 28 95 48-26-19-54-42-30-25-54-53t-41-59q-17-33-20-66-5-56 36-94t120-51q41-7 87-7 48 1 100 10t105 26q52 17 106 43 49 23 89 50t71 54 54 56q21 28 34 56 21 47 13 87t-43 70q-29 23-69 36t-88 15q60 4 111-7t85-29v0 0z m-308 216q11-4 19-13t13-25q1-5 2-14t1-14-1-15-3-13q-6-15-16-24t-20-13q-5 0-11 0t-12 1q-14 6-24 22t-9 45q2 28 12 44t26 20q6 1 12 1t11-2v0 0z m-77-32q0-22-9-45t-34-30q-3-1-6-2t-8 0q-2 0-6 0t-7 2q-24 7-33 30t-10 45q1 23 10 45t33 29q4 1 7 2t6 0q4 0 8 0t6-2q25-6 34-29t9-45v0z m-128-31q0-28-10-45t-23-22q-6-1-12-1t-12 0q-11 3-20 13t-15 24q-2 4-3 13t-1 15q0 7 0 14t2 14q4 16 13 25t20 13q6 2 11 2t12-1q15-5 25-20t13-44v0 0z m189-80q36-1 56-18t19-53q-2-45-14-82t-20-88q-4-19-7-40t-7-42q-6-36-12-49t-28-12q-24 0-31 27t-5 63 9 70q7 34 10 48 8 34 16 87t-16 87q7 2 15 2t15 0v0 0z m-118 18q41 0 65-19t24-60q0-51-12-93t-21-103l-6-47t-7-49q-4-40-11-55t-32-15q-25-1-31 15t-12 55q-3 26-6 49l-6 47q-9 61-21 103t-12 93q0 41 24 60t64 19v0 0z m-192-89q-1 36 19 53t55 18q9 1 16 0t15-2q-24-32-16-86t16-88q3-14 10-48 7-34 10-70t-5-63q-8-27-32-27-22-1-28 12t-12 49q-4 21-7 42t-7 40q-9 52-21 88t-13 82v0 0z" horiz-adv-x="1000" />

<glyph glyph-name="uniE90F" unicode="&#xe90f;" d="M339 136q0-37-26-63t-63-27-63 27-26 63q0 36 26 63t63 26 63-26 26-63z m482 0q0-37-26-63t-63-27-63 27-26 63q0 36 26 63t63 26 63-26 26-63z m143 214l-160 196q-18 21-31 29t-41 7h-643q-27-1-48-22t-23-49v-304q2-28 23-49t48-22h38q0 52 36 89t89 36q52 0 88-36t37-89h232q0 51 36 88t87 38q51 0 88-35t39-88v-1-2h53q28 1 49 22t23 49v89q0 15-4 29t-16 25v0z m-125 0h-89q-15 1-24 11t-12 25v53 54q0 13 3 20t8 10q9 7 20 6t18-9l107-129q6-8 2-24t-33-17v0z m-339 268h36v143l53-54v54l-71 71-72-71v-54l54 54v-143z m36-518h-36v-143l-54 54v-54l72-71 71 71v54l-53-54v143z" horiz-adv-x="1000" />

<glyph glyph-name="uniE910" unicode="&#xe910;" d="M857 29l54-54h-822l54 54h-54l-71-72 71-71h54l-54 53h822l-54-53h54l71 71-71 72h-54z m-518 107q0-37-26-63t-63-27-63 27-26 63q0 36 26 63t63 26 63-26 26-63z m482 0q0-37-26-63t-63-27-63 27-26 63q0 36 26 63t63 26 63-26 26-63z m143 214l-160 196q-18 21-31 29t-41 7h-643q-27-1-48-22t-23-49v-304q2-28 23-49t48-22h38q0 52 36 89t89 36q52 0 88-36t37-89h232q0 51 36 88t87 38q51 0 88-35t39-88v-1-2h53q28 1 49 22t23 49v89q0 15-4 29t-16 25v0z m-125 0h-89q-15 1-24 11t-12 25v53 54q0 13 3 20t8 10q9 7 20 6t18-9l107-129q6-8 2-24t-33-17v0z" horiz-adv-x="1000" />

<glyph glyph-name="uniE911" unicode="&#xe911;" d="M1000 350v0 120 120 1 1q0 9-5 15t-12 9q-233 114-467 229-3 2-7 4t-8 1q-5 0-9-1t-8-4l-469-231q-7-2-11-8t-4-12v-1-1-483-2-1q0-7 4-12t10-8q236-116 470-232 4-2 8-3t8-1 8 1 8 3q234 116 469 231 7 3 11 9t4 14v1 2 119 120 0z m-761 322l248 121q2 1 5 2t6 0q4 0 7 0t5-2l182-89-160-77-286-141-180 88-11 7z m237-750v-2-2-2-3l-18 8-393 193q-6 3-11 9t-4 14v3 2 91 92 91 92 20l17-7 396-194q7-4 11-8t5-14q-1-48-1-96-1-47-1-95t-1-96v-97 1z m36 445q-2-1-5-2t-6 0q-4 0-7 0t-5 2l-189 90 450 220 190-93 5-3-13-9z m428-250l-404-200-13-5v19 93 92 92 93 2 1q0 7 4 13t11 9l401 196 11 7v-9-8-373q0-7-1-13t-9-10z" horiz-adv-x="1000" />

<glyph glyph-name="uniE912" unicode="&#xe912;" d="M500 850q-103 0-195-39-91-39-159-107t-107-159q-39-91-39-195t39-195q39-91 107-159t159-107q92-39 195-39t195 39q91 39 159 107t107 159q39 92 39 195t-39 195q-39 91-107 159t-159 107q-91 39-195 39z m-37-720l-63 64 150 153-150 150 63 63 217-213-217-217v0z" horiz-adv-x="1000" />

<glyph glyph-name="uniE913" unicode="&#xe913;" d="M713 248q-12 8-27 6t-23-12l-99-100q-10-11-24-11t-23 11l-227 227q-10 9-10 23t10 23l97 97q5 10 6 25t-9 25l-174 246q-8 11-20 13t-23-6l-21-19q-22-17-48-47t-46-66q-22-37-22-74 0-152 57-285 58-134 157-234t234-157q132-58 286-58 37 0 72 29 36 28 63 63t44 63l17 28q8 13 3 26t-17 21l-233 143v0z" horiz-adv-x="1000" />

<glyph glyph-name="uniE914" unicode="&#xe914;" d="M614 207l29 625h-268l25-625h214z m-239-107h268v-232h-268v232 0z" horiz-adv-x="1000" />

<glyph glyph-name="uniE915" unicode="&#xe915;" d="M911 421l-179 36-163 130q-10 8-22 11t-24 1q-1 1-2 1h-3-232-3-4q-10 1-22-2t-21-11l-143-110-4-2q-29 0-50-21t-21-50v-143q0-30 21-51t50-21h36v7 11q0 44 31 76t76 31q44 0 76-31t31-76v-11-7h286v7 11q0 41 26 74t77 33h2 2q54 0 81-33t26-74v-11-7h72q29 0 50 21t21 51v89q0 29-21 50t-50 21v0z m-679-142q-30 0-50-21t-21-51q0-4 1-9t1-9q6-23 25-38t44-15q25 0 44 15t25 38q1 5 2 9t1 9q0 30-21 51t-51 21v0z m500 0h-1-2q-30-2-50-24t-18-51q0-4 1-8t1-7q6-23 25-38t44-15h2 1q25 1 42 16t24 37q2 6 2 11t1 10q-2 30-23 49t-49 20v0z" horiz-adv-x="1000" />

<glyph glyph-name="uniE916" unicode="&#xe916;" d="M821 832h-744q-20 0-40-22t-19-49v-822q0-29 21-50t50-21h822q29 0 50 21t21 50v732l-161 161v0z m-517-71h250v-179h71v179h71v-215q0-14-10-25t-25-10h-322q-15 0-25 10t-10 25v215 0z m535-822h-678v465q0 14 10 25t25 10h608q14 0 25-10t10-25v-465 0z" horiz-adv-x="1000" />

<glyph glyph-name="uniE917" unicode="&#xe917;" d="M837 665q9 17 6 37t-17 35l-62 63q-10 9-21 14t-24 5q-7 0-14-2t-15-5l-62-31q-1 0-1-1t-2-1-1 1-2 1l-62 31q-7 4-15 5t-14 2-14-2-14-5l-63-31q0 0-1-1t-1-1-2 1-1 1l-63 31q-7 4-14 5t-14 2-14-2-15-5l-62-31q-1 0-1-1t-2-1-1 1-2 1l-61 31q-7 4-15 5t-14 2q-11 0-23-5t-21-13l-63-62q-15-15-18-35t6-39l31-62q0-1 1-1t1-2-1-1-1-2l-31-62q-7-14-7-29t7-28l31-63q0 0 1-1t1-1-1-2-1-1l-31-63q-7-14-7-28t7-29l31-62q0-1 1-1t1-2-1-1-1-2l-31-61q-9-18-6-38t17-35l62-63q10-9 21-14t24-5q7 0 14 2t15 5l62 31q1 0 4 2l2 1v0 1l-27 55q-7 14-7 28t7 29l31 62q0 1 1 2t1 1-1 2-1 1l-31 62q-7 14-7 29t7 28l31 63q0 1 1 1t1 2-1 1-1 1l-31 63q-10 19-7 39t18 34l64 63q9 9 20 13t24 4q7 0 14-1t14-6l62-31q1 0 1-1t2-1 1 1 1 1l63 31q7 4 14 6t14 1 14-1 15-6l62-31q1 0 2-1t1-1 2 1 1 1l62 31q7 4 15 6t14 1 14-1 14-6l55-27 2 3 1 1t1 2l31 62v0z m-368-659v-94l62-31 63 31v94h-125z m0 532v-94h125v94l-63 31z m187 0v-94h125v94l-62 31z m0-626l63-31 62 31v94h-125v-94z m188 469v-125h94l31 63-31 62h-94z m-531-125h93v125h-93l-32-62z m156 125h125v-125h-125v125z m187 0h125v-125h-125v125z m-250-187h-93l-32-63 32-62h93v125z m63 0v-125h125v125h-125z m375 0v-125h94l31 62-31 63h-94z m-188 0h125v-125h-125v125z m-250 250v0 94l-61 31-64-63 32-62h93z m438 0v0h94l31 61-63 64-62-31v-94z m0-438v-94l61-31 64 63-31 62h-94z m-563-61l63-64 62 31v94h-93z" horiz-adv-x="1000" />

<glyph glyph-name="uniE918" unicode="&#xe918;" d="M750 368q48 0 91 18 42 19 73 50t50 73q18 43 18 91t-18 91q-19 42-50 73t-73 50q-43 18-91 18t-91-18q-42-19-73-50t-50-73q-18-43-18-91t18-91q19-42 50-73t73-50q43-18 91-18z m-143 268h107v107h72v-107h107v-72h-107v-107h-72v107h-107v72 0z m-375-340l-214-214h107l107 107v-321h536v321l107-107h107l-214 214h-536z" horiz-adv-x="1000" />

<glyph glyph-name="uniE919" unicode="&#xe919;" d="M268 832h-179q-29 0-50-21t-21-50v-822q0-29 21-50t50-21h179q30 0 50 21t21 50v822q0 29-21 50t-50 21v0z m-89-893q-23 0-38 16t-16 38q0 22 16 38t38 15 38-15 15-38q0-22-15-38t-38-16z m553 786l-158 83q-24 13-51 5t-40-31q0-1 0-2t-1-1l-89-179v-679l357 715q14 27 9 51t-27 38v0z m232-429l-107 143q-15 25-40 29t-49-11l-89-71-250-518 517 321q28 14 32 48t-14 59v0z" horiz-adv-x="1000" />

<glyph glyph-name="uniE91A" unicode="&#xe91a;" d="M89 475h335q-6 17-9 35t-4 36q0 20 4 37t9 35h-335q-29 0-50-21t-21-51 21-50 50-21v0z m822 0q29 0 50 21t21 50-21 51-50 21h-121q7-17 10-35t4-37q0-18-4-36t-10-35h121z m-179 71q0-51-36-88t-89-37-88 37-37 88 37 89 88 36 89-36 36-89z m179-321h-335q6-17 9-35t4-36q0-20-4-37t-9-35h335q29 0 50 21t21 51-21 50-50 21z m-822 0q-29 0-50-21t-21-50 21-51 50-21h121q-7 17-10 35t-4 37q0 18 4 36t10 35h-121z m429-71q0-52-37-89t-88-36-89 36-36 89 36 88 89 37 88-37 37-88z" horiz-adv-x="1000" />

<glyph glyph-name="uniE91B" unicode="&#xe91b;" d="M18 689h428v-107h-428v107 0z m0-303h428v-107h-428v107 0z m696-36l-71 71-72-71 143-143 250 250-71 72z m-696-268h428v-107h-428v107 0z m946 679l-71 71-179-178-71 71-72-71 143-143z m-250-715l-71 72-72-72 143-142 250 250-71 71z" horiz-adv-x="1000" />

<glyph glyph-name="uniE91C" unicode="&#xe91c;" d="M745 466q-7 8-17 9t-21-5q-5-5-8-11t-3-20v-53-54q2-14 12-24t24-12h89q14 0 17 1t9 5q8 5 9 15t-4 18v1t-2 1l-105 129v0z m219-134l-160 197q-15 14-30 25t-42 10h-643q-27-1-48-22t-23-49v-304q2-29 22-49t49-22h36q0 52 37 88t88 37 88-37 37-88h196q15 0 26 10t10 26v339q0 14 11 25t25 11h71q16 1 29-3t25-15l161-197q7-6 11-15t6-20v-90q0-15-9-25t-25-10h0-1-54v-36h54q28 2 49 23t22 48v90q0 14-4 28t-14 25v0z m-625-214q0-37-26-63t-63-26-63 26-26 63 26 63 63 26 63-26 26-63z m482 0q0-37-26-63t-63-26-63 26-26 63 26 63 63 26 63-26 26-63z" horiz-adv-x="1000" />

</font>
</defs>
</svg>
